<svg width="248" height="103" viewBox="0 0 248 103" fill="none" xmlns="http://www.w3.org/2000/svg">
<g id="tittle">
<g id="Rectangle 13" filter="url(#filter0_dd)">
<rect x="16" y="16" width="216" height="71" rx="23" fill="#222222"/>
</g>
<g id="CONTACT" filter="url(#filter1_i)">
<path d="M75.8906 56.4219C75.7135 58.8698 74.8073 60.7969 73.1719 62.2031C71.5469 63.6094 69.401 64.3125 66.7344 64.3125C63.8177 64.3125 61.5208 63.3333 59.8438 61.375C58.1771 59.4062 57.3438 56.7083 57.3438 53.2812V51.8906C57.3438 49.7031 57.7292 47.776 58.5 46.1094C59.2708 44.4427 60.3698 43.1667 61.7969 42.2812C63.2344 41.3854 64.901 40.9375 66.7969 40.9375C69.4219 40.9375 71.5365 41.6406 73.1406 43.0469C74.7448 44.4531 75.6719 46.4271 75.9219 48.9688H71.2344C71.1198 47.5 70.7083 46.4375 70 45.7812C69.3021 45.1146 68.2344 44.7812 66.7969 44.7812C65.2344 44.7812 64.0625 45.3438 63.2812 46.4688C62.5104 47.5833 62.1146 49.3177 62.0938 51.6719V53.3906C62.0938 55.849 62.4635 57.6458 63.2031 58.7812C63.9531 59.9167 65.1302 60.4844 66.7344 60.4844C68.1823 60.4844 69.2604 60.1562 69.9688 59.5C70.6875 58.8333 71.099 57.8073 71.2031 56.4219H75.8906ZM97.6562 53.1406C97.6562 55.3802 97.2604 57.3438 96.4688 59.0312C95.6771 60.7188 94.5417 62.0208 93.0625 62.9375C91.5938 63.8542 89.9062 64.3125 88 64.3125C86.1146 64.3125 84.4323 63.8594 82.9531 62.9531C81.474 62.0469 80.3281 60.7552 79.5156 59.0781C78.7031 57.3906 78.2917 55.4531 78.2812 53.2656V52.1406C78.2812 49.901 78.6823 47.9323 79.4844 46.2344C80.2969 44.526 81.4375 43.2188 82.9062 42.3125C84.3854 41.3958 86.0729 40.9375 87.9688 40.9375C89.8646 40.9375 91.5469 41.3958 93.0156 42.3125C94.4948 43.2188 95.6354 44.526 96.4375 46.2344C97.25 47.9323 97.6562 49.8958 97.6562 52.125V53.1406ZM92.9062 52.1094C92.9062 49.724 92.4792 47.9115 91.625 46.6719C90.7708 45.4323 89.5521 44.8125 87.9688 44.8125C86.3958 44.8125 85.1823 45.4271 84.3281 46.6562C83.474 47.875 83.0417 49.6667 83.0312 52.0312V53.1406C83.0312 55.4635 83.4583 57.2656 84.3125 58.5469C85.1667 59.8281 86.3958 60.4688 88 60.4688C89.5729 60.4688 90.7812 59.8542 91.625 58.625C92.4688 57.3854 92.8958 55.5833 92.9062 53.2188V52.1094ZM119.562 64H114.875L105.75 49.0312V64H101.062V41.25H105.75L114.891 56.25V41.25H119.562V64ZM140.312 45.0469H133.344V64H128.656V45.0469H121.781V41.25H140.312V45.0469ZM153.969 59.3125H145.75L144.188 64H139.203L147.672 41.25H152.016L160.531 64H155.547L153.969 59.3125ZM147.016 55.5156H152.703L149.844 47L147.016 55.5156ZM180.172 56.4219C179.995 58.8698 179.089 60.7969 177.453 62.2031C175.828 63.6094 173.682 64.3125 171.016 64.3125C168.099 64.3125 165.802 63.3333 164.125 61.375C162.458 59.4062 161.625 56.7083 161.625 53.2812V51.8906C161.625 49.7031 162.01 47.776 162.781 46.1094C163.552 44.4427 164.651 43.1667 166.078 42.2812C167.516 41.3854 169.182 40.9375 171.078 40.9375C173.703 40.9375 175.818 41.6406 177.422 43.0469C179.026 44.4531 179.953 46.4271 180.203 48.9688H175.516C175.401 47.5 174.99 46.4375 174.281 45.7812C173.583 45.1146 172.516 44.7812 171.078 44.7812C169.516 44.7812 168.344 45.3438 167.562 46.4688C166.792 47.5833 166.396 49.3177 166.375 51.6719V53.3906C166.375 55.849 166.745 57.6458 167.484 58.7812C168.234 59.9167 169.411 60.4844 171.016 60.4844C172.464 60.4844 173.542 60.1562 174.25 59.5C174.969 58.8333 175.38 57.8073 175.484 56.4219H180.172ZM199.906 45.0469H192.938V64H188.25V45.0469H181.375V41.25H199.906V45.0469Z" fill="#FFBE0B"/>
</g>
</g>
<defs>
<filter id="filter0_dd" x="0" y="0" width="248" height="103" filterUnits="userSpaceOnUse" color-interpolation-filters="sRGB">
<feFlood flood-opacity="0" result="BackgroundImageFix"/>
<feColorMatrix in="SourceAlpha" type="matrix" values="0 0 0 0 0 0 0 0 0 0 0 0 0 0 0 0 0 0 127 0"/>
<feOffset dx="4" dy="4"/>
<feGaussianBlur stdDeviation="6"/>
<feColorMatrix type="matrix" values="0 0 0 0 0 0 0 0 0 0 0 0 0 0 0 0 0 0 0.96 0"/>
<feBlend mode="normal" in2="BackgroundImageFix" result="effect1_dropShadow"/>
<feColorMatrix in="SourceAlpha" type="matrix" values="0 0 0 0 0 0 0 0 0 0 0 0 0 0 0 0 0 0 127 0"/>
<feOffset dx="-4" dy="-4"/>
<feGaussianBlur stdDeviation="6"/>
<feColorMatrix type="matrix" values="0 0 0 0 1 0 0 0 0 1 0 0 0 0 1 0 0 0 0.06 0"/>
<feBlend mode="normal" in2="effect1_dropShadow" result="effect2_dropShadow"/>
<feBlend mode="normal" in="SourceGraphic" in2="effect2_dropShadow" result="shape"/>
</filter>
<filter id="filter1_i" x="57.3438" y="40.9375" width="146.562" height="27.375" filterUnits="userSpaceOnUse" color-interpolation-filters="sRGB">
<feFlood flood-opacity="0" result="BackgroundImageFix"/>
<feBlend mode="normal" in="SourceGraphic" in2="BackgroundImageFix" result="shape"/>
<feColorMatrix in="SourceAlpha" type="matrix" values="0 0 0 0 0 0 0 0 0 0 0 0 0 0 0 0 0 0 127 0" result="hardAlpha"/>
<feOffset dx="4" dy="4"/>
<feGaussianBlur stdDeviation="6"/>
<feComposite in2="hardAlpha" operator="arithmetic" k2="-1" k3="1"/>
<feColorMatrix type="matrix" values="0 0 0 0 0 0 0 0 0 0 0 0 0 0 0 0 0 0 1 0"/>
<feBlend mode="normal" in2="shape" result="effect1_innerShadow"/>
</filter>
</defs>
</svg>
