<svg width="143" height="25" viewBox="0 0 143 25" fill="none" xmlns="http://www.w3.org/2000/svg">
<g id="CONTACT" filter="url(#filter0_i)">
<path d="M18.8906 16.4219C18.7135 18.8698 17.8073 20.7969 16.1719 22.2031C14.5469 23.6094 12.401 24.3125 9.73438 24.3125C6.81771 24.3125 4.52083 23.3333 2.84375 21.375C1.17708 19.4062 0.34375 16.7083 0.34375 13.2812V11.8906C0.34375 9.70312 0.729167 7.77604 1.5 6.10938C2.27083 4.44271 3.36979 3.16667 4.79688 2.28125C6.23438 1.38542 7.90104 0.9375 9.79688 0.9375C12.4219 0.9375 14.5365 1.64062 16.1406 3.04688C17.7448 4.45312 18.6719 6.42708 18.9219 8.96875H14.2344C14.1198 7.5 13.7083 6.4375 13 5.78125C12.3021 5.11458 11.2344 4.78125 9.79688 4.78125C8.23438 4.78125 7.0625 5.34375 6.28125 6.46875C5.51042 7.58333 5.11458 9.31771 5.09375 11.6719V13.3906C5.09375 15.849 5.46354 17.6458 6.20312 18.7812C6.95312 19.9167 8.13021 20.4844 9.73438 20.4844C11.1823 20.4844 12.2604 20.1562 12.9688 19.5C13.6875 18.8333 14.099 17.8073 14.2031 16.4219H18.8906ZM40.6562 13.1406C40.6562 15.3802 40.2604 17.3438 39.4688 19.0312C38.6771 20.7188 37.5417 22.0208 36.0625 22.9375C34.5938 23.8542 32.9062 24.3125 31 24.3125C29.1146 24.3125 27.4323 23.8594 25.9531 22.9531C24.474 22.0469 23.3281 20.7552 22.5156 19.0781C21.7031 17.3906 21.2917 15.4531 21.2812 13.2656V12.1406C21.2812 9.90104 21.6823 7.93229 22.4844 6.23438C23.2969 4.52604 24.4375 3.21875 25.9062 2.3125C27.3854 1.39583 29.0729 0.9375 30.9688 0.9375C32.8646 0.9375 34.5469 1.39583 36.0156 2.3125C37.4948 3.21875 38.6354 4.52604 39.4375 6.23438C40.25 7.93229 40.6562 9.89583 40.6562 12.125V13.1406ZM35.9062 12.1094C35.9062 9.72396 35.4792 7.91146 34.625 6.67188C33.7708 5.43229 32.5521 4.8125 30.9688 4.8125C29.3958 4.8125 28.1823 5.42708 27.3281 6.65625C26.474 7.875 26.0417 9.66667 26.0312 12.0312V13.1406C26.0312 15.4635 26.4583 17.2656 27.3125 18.5469C28.1667 19.8281 29.3958 20.4688 31 20.4688C32.5729 20.4688 33.7812 19.8542 34.625 18.625C35.4688 17.3854 35.8958 15.5833 35.9062 13.2188V12.1094ZM62.5625 24H57.875L48.75 9.03125V24H44.0625V1.25H48.75L57.8906 16.25V1.25H62.5625V24ZM83.3125 5.04688H76.3438V24H71.6562V5.04688H64.7812V1.25H83.3125V5.04688ZM96.9688 19.3125H88.75L87.1875 24H82.2031L90.6719 1.25H95.0156L103.531 24H98.5469L96.9688 19.3125ZM90.0156 15.5156H95.7031L92.8438 7L90.0156 15.5156ZM123.172 16.4219C122.995 18.8698 122.089 20.7969 120.453 22.2031C118.828 23.6094 116.682 24.3125 114.016 24.3125C111.099 24.3125 108.802 23.3333 107.125 21.375C105.458 19.4062 104.625 16.7083 104.625 13.2812V11.8906C104.625 9.70312 105.01 7.77604 105.781 6.10938C106.552 4.44271 107.651 3.16667 109.078 2.28125C110.516 1.38542 112.182 0.9375 114.078 0.9375C116.703 0.9375 118.818 1.64062 120.422 3.04688C122.026 4.45312 122.953 6.42708 123.203 8.96875H118.516C118.401 7.5 117.99 6.4375 117.281 5.78125C116.583 5.11458 115.516 4.78125 114.078 4.78125C112.516 4.78125 111.344 5.34375 110.562 6.46875C109.792 7.58333 109.396 9.31771 109.375 11.6719V13.3906C109.375 15.849 109.745 17.6458 110.484 18.7812C111.234 19.9167 112.411 20.4844 114.016 20.4844C115.464 20.4844 116.542 20.1562 117.25 19.5C117.969 18.8333 118.38 17.8073 118.484 16.4219H123.172ZM142.906 5.04688H135.938V24H131.25V5.04688H124.375V1.25H142.906V5.04688Z" fill="#FFBE0B"/>
</g>
<defs>
<filter id="filter0_i" x="0.34375" y="0.9375" width="143.562" height="25.375" filterUnits="userSpaceOnUse" color-interpolation-filters="sRGB">
<feFlood flood-opacity="0" result="BackgroundImageFix"/>
<feBlend mode="normal" in="SourceGraphic" in2="BackgroundImageFix" result="shape"/>
<feColorMatrix in="SourceAlpha" type="matrix" values="0 0 0 0 0 0 0 0 0 0 0 0 0 0 0 0 0 0 127 0" result="hardAlpha"/>
<feOffset dx="1" dy="2"/>
<feGaussianBlur stdDeviation="1.5"/>
<feComposite in2="hardAlpha" operator="arithmetic" k2="-1" k3="1"/>
<feColorMatrix type="matrix" values="0 0 0 0 0 0 0 0 0 0 0 0 0 0 0 0 0 0 1 0"/>
<feBlend mode="normal" in2="shape" result="effect1_innerShadow"/>
</filter>
</defs>
</svg>
