<svg width="252" height="43" viewBox="0 0 252 43" fill="none" xmlns="http://www.w3.org/2000/svg">
<g id="KONTAKT" filter="url(#filter0_i)">
<path d="M13.3096 25.7461L8.96777 30.4219V42H0.618164V1.47656H8.96777V19.8457L12.6416 14.8081L22.9673 1.47656H33.2373L18.8481 19.4839L33.6548 42H23.7188L13.3096 25.7461ZM69.1963 22.6567C69.1963 26.646 68.4912 30.1436 67.0811 33.1494C65.6709 36.1553 63.6484 38.4746 61.0137 40.1074C58.3975 41.7402 55.3916 42.5566 51.9961 42.5566C48.6377 42.5566 45.6411 41.7495 43.0063 40.1353C40.3716 38.521 38.3306 36.2202 36.8833 33.2329C35.436 30.2271 34.7031 26.7759 34.6846 22.8794V20.8755C34.6846 16.8862 35.3989 13.3794 36.8276 10.355C38.2749 7.31201 40.3066 4.9834 42.9229 3.36914C45.5576 1.73633 48.5635 0.919922 51.9404 0.919922C55.3174 0.919922 58.314 1.73633 60.9302 3.36914C63.5649 4.9834 65.5967 7.31201 67.0254 10.355C68.4727 13.3794 69.1963 16.877 69.1963 20.8477V22.6567ZM60.7354 20.8198C60.7354 16.5708 59.9746 13.3423 58.4531 11.1343C56.9316 8.92627 54.7607 7.82227 51.9404 7.82227C49.1387 7.82227 46.9771 8.91699 45.4556 11.1064C43.9341 13.2773 43.1641 16.4688 43.1455 20.6807V22.6567C43.1455 26.7944 43.9062 30.0044 45.4277 32.2866C46.9492 34.5688 49.1387 35.71 51.9961 35.71C54.7979 35.71 56.9502 34.6152 58.4531 32.4258C59.9561 30.2178 60.7168 27.0078 60.7354 22.7959V20.8198ZM108.217 42H99.8672L83.6133 15.3369V42H75.2637V1.47656H83.6133L99.895 28.1953V1.47656H108.217V42ZM145.178 8.23975H132.765V42H124.415V8.23975H112.169V1.47656H145.178V8.23975ZM169.503 33.6504H154.863L152.08 42H143.202L158.287 1.47656H166.024L181.192 42H172.314L169.503 33.6504ZM157.118 26.8872H167.249L162.155 11.7188L157.118 26.8872ZM197.669 25.7461L193.327 30.4219V42H184.978V1.47656H193.327V19.8457L197.001 14.8081L207.327 1.47656H217.597L203.208 19.4839L218.014 42H208.078L197.669 25.7461ZM251.663 8.23975H239.25V42H230.9V8.23975H218.654V1.47656H251.663V8.23975Z" fill="#FFBE0B"/>
</g>
<defs>
<filter id="filter0_i" x="0.618164" y="0.919922" width="255.045" height="45.6367" filterUnits="userSpaceOnUse" color-interpolation-filters="sRGB">
<feFlood flood-opacity="0" result="BackgroundImageFix"/>
<feBlend mode="normal" in="SourceGraphic" in2="BackgroundImageFix" result="shape"/>
<feColorMatrix in="SourceAlpha" type="matrix" values="0 0 0 0 0 0 0 0 0 0 0 0 0 0 0 0 0 0 127 0" result="hardAlpha"/>
<feOffset dx="4" dy="4"/>
<feGaussianBlur stdDeviation="6"/>
<feComposite in2="hardAlpha" operator="arithmetic" k2="-1" k3="1"/>
<feColorMatrix type="matrix" values="0 0 0 0 0 0 0 0 0 0 0 0 0 0 0 0 0 0 1 0"/>
<feBlend mode="normal" in2="shape" result="effect1_innerShadow"/>
</filter>
</defs>
</svg>
