<svg width="359" height="373" viewBox="0 0 359 373" fill="none" xmlns="http://www.w3.org/2000/svg">
<g id="skillsImage">
<g id="picture">
<g id="plant">
<path id="Vector" d="M52.1002 168.719C52.1002 168.719 81.3043 197.961 64.8195 241.334C48.3346 284.708 93.0752 356.896 93.0752 356.896C93.0752 356.896 92.597 356.824 91.7084 356.668C31.7303 346.067 1.92849 277.382 35.2966 226.372C47.6811 207.385 57.8581 185.133 52.1002 168.719Z" fill="#6C63FF"/>
<path id="Vector_2" d="M52.1 168.719C52.1 168.719 68.5848 204.564 52.1 233.801C35.6152 263.039 49.2748 345.118 93.0789 356.896" stroke="#535461" stroke-width="2" stroke-miterlimit="10"/>
<path id="Vector_3" d="M0.0834961 286.986C0.0834961 286.986 33.4078 281.671 36.4442 311.575C39.4805 341.479 100.527 345.625 100.527 345.625C100.527 345.625 100.128 345.896 99.3829 346.387C48.9801 379.502 0.800747 367.489 8.06491 323.501C10.7626 307.147 10.5395 290.72 0.0834961 286.986Z" fill="#6C63FF"/>
<path id="Vector_4" opacity="0.2" d="M0.0834961 286.986C0.0834961 286.986 33.4078 281.671 36.4442 311.575C39.4805 341.479 100.527 345.625 100.527 345.625C100.527 345.625 100.128 345.896 99.3829 346.387C48.9801 379.502 0.800747 367.489 8.06491 323.501C10.7626 307.147 10.5395 290.72 0.0834961 286.986Z" fill="#F5F5F5"/>
<path id="Vector_5" d="M0.0834961 286.986C0.0834961 286.986 25.9484 292.671 23.8245 316.219C21.7007 339.767 62.2373 368.011 100.527 345.625" stroke="#535461" stroke-width="2" stroke-miterlimit="10"/>
</g>
<g id="bricks">
<path id="Vector_6" opacity="0.2" d="M325.007 171.512H304.286V182.285H325.007V171.512Z" fill="#8338EC"/>
<path id="Vector_7" opacity="0.2" d="M326.6 184.679H305.88V195.451H326.6V184.679Z" fill="#8338EC"/>
<path id="Vector_8" opacity="0.2" d="M309.466 93.3114H288.745V104.084H309.466V93.3114Z" fill="#8338EC"/>
<path id="Vector_9" opacity="0.2" d="M324.21 105.68H303.489V116.452H324.21V105.68Z" fill="#8338EC"/>
<path id="Vector_10" opacity="0.2" d="M284.362 94.1094H263.641V104.882H284.362V94.1094Z" fill="#8338EC"/>
<path id="Vector_11" opacity="0.2" d="M350.907 118.048H330.187V128.821H350.907V118.048Z" fill="#8338EC"/>
<path id="Vector_12" opacity="0.2" d="M325.803 118.846H305.083V129.619H325.803V118.846Z" fill="#8338EC"/>
<path id="Vector_13" opacity="0.2" d="M299.106 106.478H278.385V117.25H299.106V106.478Z" fill="#8338EC"/>
<path id="Vector_14" opacity="0.2" d="M349.712 201.037H328.991V211.809H349.712V201.037Z" fill="#8338EC"/>
<path id="Vector_15" opacity="0.2" d="M324.608 201.835H303.887V212.608H324.608V201.835Z" fill="#8338EC"/>
<path id="Vector_16" opacity="0.2" d="M20.9716 171.911H0.250977V182.684H20.9716V171.911Z" fill="#8338EC"/>
<path id="Vector_17" opacity="0.2" d="M35.7152 184.28H14.9946V195.052H35.7152V184.28Z" fill="#8338EC"/>
<path id="Vector_18" opacity="0.2" d="M147.686 58.5999H126.965V69.3724H147.686V58.5999Z" fill="#8338EC"/>
<path id="Vector_19" opacity="0.2" d="M311.06 257.294H290.339V268.066H311.06V257.294Z" fill="#8338EC"/>
<path id="Vector_20" opacity="0.2" d="M37.309 197.446H16.5884V208.219H37.309V197.446Z" fill="#8338EC"/>
<path id="Vector_21" opacity="0.2" d="M162.43 70.9684H141.709V81.7409H162.43V70.9684Z" fill="#8338EC"/>
<path id="Vector_22" opacity="0.2" d="M86.7196 143.982H65.999V154.755H86.7196V143.982Z" fill="#8338EC"/>
<path id="Vector_23" opacity="0.2" d="M101.463 156.351H80.7422V167.123H101.463V156.351Z" fill="#8338EC"/>
<path id="Vector_24" opacity="0.2" d="M140.912 149.568H120.191V160.341H140.912V149.568Z" fill="#8338EC"/>
<path id="Vector_25" opacity="0.2" d="M103.057 169.517H82.3364V180.29H103.057V169.517Z" fill="#8338EC"/>
<path id="Vector_26" opacity="0.2" d="M338.953 257.294H318.232V268.066H338.953V257.294Z" fill="#8338EC"/>
</g>
<g id="main">
<g id="character">
<path id="Vector_27" d="M287.159 214.646C285.818 207.17 284.995 199.61 284.697 192.02C284.432 185.769 282.242 179.753 278.429 174.798C274.615 169.842 269.363 166.188 263.394 164.338C261.219 163.668 258.824 163.042 256.178 162.479C232.987 157.548 225.942 161.853 225.141 162.419C224.463 161.185 223.873 159.903 223.376 158.585C223.336 158.449 223.3 158.314 223.26 158.186C227.85 153.285 230.647 146.972 231.194 140.276C235.063 136.35 237.322 131.61 237.322 126.507C237.322 122.118 235.649 118 232.72 114.438V107.503C232.72 99.5066 229.547 91.8376 223.9 86.1831C218.253 80.5287 210.594 77.3521 202.607 77.3521H200.165C196.21 77.3521 192.295 78.1319 188.641 79.6472C184.988 81.1624 181.668 83.3833 178.872 86.1831C176.076 88.9829 173.858 92.3068 172.344 95.9649C170.831 99.623 170.052 103.544 170.052 107.503V114.976C167.394 118.411 165.888 122.333 165.888 126.499C165.888 131.494 168.056 136.138 171.778 140.016C172.286 146.958 175.211 153.501 180.042 158.505C180.205 159.638 180.373 160.855 180.536 162.14L139.055 170.914C139.055 170.914 123.06 171.572 112.756 192.858C104.041 210.888 86.6996 257.21 81.5633 270.999C80.6349 273.496 80.1089 274.929 80.1089 274.929C80.1089 274.929 80.2802 274.757 80.603 274.462L80.1089 275.806C80.1089 275.806 80.3599 275.551 80.8381 275.132C80.1129 280.901 80.0093 290.808 87.5563 292.041C93.8841 293.074 110.19 293.501 122.506 293.673H123.359C131.524 293.781 137.736 293.781 137.736 293.781V293.673H270.204V292.312C270.206 291.078 269.958 289.857 269.475 288.722L269.658 288.498C270.367 289.435 270.839 290.531 271.033 291.69C271.018 291.803 270.997 291.915 270.969 292.025L271.049 291.822C271.08 292.184 271.053 292.549 270.969 292.903C270.969 292.903 287.964 249.059 287.781 222.877C287.83 220.12 287.622 217.365 287.159 214.646ZM181.225 168.065C181.006 166.814 180.865 165.551 180.803 164.283C180.803 164.283 180.803 164.259 180.803 164.247C180.95 165.48 181.094 166.756 181.225 168.065ZM129.735 262.241V272.69L123.2 274.091L129.735 262.241Z" fill="url(#paint0_linear)"/>
<path id="Vector_28" d="M200.715 81.5692C208.701 81.5692 216.36 84.7459 222.007 90.4003C227.655 96.0548 230.827 103.724 230.827 111.721V124.584H170.602V111.721C170.602 103.724 173.775 96.0548 179.422 90.4003C185.069 84.7459 192.728 81.5692 200.715 81.5692Z" fill="#E14B5A"/>
<path id="Vector_29" d="M200.926 152.417C219.883 152.417 235.25 141.844 235.25 128.801C235.25 115.758 219.883 105.185 200.926 105.185C181.969 105.185 166.601 115.758 166.601 128.801C166.601 141.844 181.969 152.417 200.926 152.417Z" fill="#E14B5A"/>
<path id="Vector_30" d="M178.922 151.679C178.922 151.679 186.095 189.211 178.922 199.333C171.75 209.455 200.838 213.461 200.838 213.461L230.947 202.497L235.158 175.506C235.158 175.506 216.829 165.172 220.626 144.297L178.922 151.679Z" fill="#F7C4A7"/>
<path id="Vector_31" d="M267.79 278.196C267.79 278.196 269.686 286.419 259.366 287.896C253.272 288.793 247.075 288.719 241.004 287.676L238.729 267.021H262.737L267.79 278.196Z" fill="#F7C4A7"/>
<path id="Vector_32" d="M85.5517 267.671C85.5517 267.671 80.9931 286.22 91.3136 287.896C101.634 289.571 139.529 289.583 139.529 289.583V267.639L122.371 271.31L106.265 255.845L85.5517 267.671Z" fill="#F7C4A7"/>
<path id="Vector_33" opacity="0.1" d="M181.138 163.804L140.808 172.342C140.808 172.342 125.435 172.976 115.537 193.428C105.639 213.88 84.1572 272.291 84.1572 272.291C84.1572 272.291 102.487 253.735 123.961 273.556L138.282 247.622L135.122 288.742H246.089V269.339C246.089 269.339 269.252 281.779 267.57 288.738C267.57 288.738 287.394 237.596 283.111 214.355C281.821 207.17 281.03 199.905 280.744 192.61C280.491 186.603 278.387 180.821 274.721 176.058C271.056 171.296 266.008 167.786 260.27 166.01C258.182 165.368 255.887 164.765 253.337 164.227C229.54 159.168 223.451 164.227 223.451 164.227C223.451 164.227 218.841 179.245 218.925 186.051C219.028 194.801 206.5 200.602 206.5 200.602C206.5 200.602 187.967 196.173 187.127 192.59C186.286 189.008 179.655 168.021 181.138 163.804Z" fill="black"/>
<path id="Vector_34" d="M181.138 162.962L140.808 171.5C140.808 171.5 125.435 172.135 115.537 192.586C105.639 213.038 84.1538 271.457 84.1538 271.457C84.1538 271.457 102.483 252.901 123.957 272.722L138.278 246.788L135.118 287.896H246.089V268.497C246.089 268.497 269.252 280.937 267.571 287.896C267.571 287.896 287.395 236.754 283.111 213.513C281.822 206.328 281.031 199.063 280.744 191.769C280.491 185.761 278.387 179.979 274.722 175.216C271.056 170.454 266.008 166.944 260.271 165.168C258.183 164.526 255.887 163.923 253.337 163.385C229.54 158.326 223.452 163.385 223.452 163.385C223.452 163.385 218.841 178.403 218.925 185.209C219.029 193.959 206.501 199.76 206.501 199.76C206.501 199.76 187.968 195.331 187.127 191.749C186.286 188.166 179.656 167.179 181.138 162.962Z" fill="#575988"/>
<path id="Vector_35" opacity="0.1" d="M222.348 161.171C220.654 156.368 220.274 151.2 221.248 146.201L179.544 153.578C179.544 153.578 180.146 156.734 180.827 161.462C183.522 164.261 186.757 166.483 190.336 167.992C193.915 169.5 197.763 170.264 201.646 170.237C205.529 170.21 209.366 169.392 212.924 167.833C216.481 166.275 219.685 164.008 222.34 161.171H222.348Z" fill="black"/>
<path id="Vector_36" d="M229.46 139.661C229.428 147.186 226.443 154.396 221.15 159.737C215.857 165.078 208.679 168.122 201.165 168.213C193.651 168.304 186.402 165.435 180.981 160.224C175.561 155.013 172.403 147.877 172.188 140.356C172.188 140.124 172.188 139.893 172.188 139.661C172.187 134.292 173.691 129.03 176.529 124.474C179.367 119.918 183.426 116.251 188.242 113.891C189.101 113.471 189.982 113.093 190.888 112.758C195.6 111.024 200.682 110.551 205.632 111.385C211.976 112.467 217.771 115.658 222.08 120.443C226.39 125.228 228.964 131.328 229.385 137.758C229.435 138.389 229.46 139.023 229.46 139.661Z" fill="#F7C4A7"/>
<path id="Vector_37" d="M190.845 112.782L190.884 112.758C189.979 113.093 189.097 113.471 188.239 113.891C183.422 116.251 179.363 119.918 176.525 124.474C173.687 129.03 172.183 134.292 172.184 139.661C172.184 139.893 172.184 140.124 172.184 140.356C173.075 140.331 173.95 140.121 174.754 139.737C181.735 136.473 185.911 126.491 187.569 119.529C188.167 117.051 188.729 114.23 190.845 112.782Z" fill="#632652"/>
<path id="Vector_38" d="M212.765 113.588C210.498 112.545 208.104 111.806 205.644 111.389C207.661 111.854 209.463 112.987 210.756 114.605C211.39 115.469 211.916 116.406 212.322 117.398C208.511 115.729 204.383 114.91 200.224 114.996C196.065 115.082 191.974 116.072 188.235 117.897C190.032 121.843 195.606 123.993 199.328 125.434C203.403 127.008 207.521 128.449 211.681 129.755L207.999 126.762L216.315 128.087C216.404 126.43 216.208 124.769 215.733 123.179C217.327 124.464 219.439 124.895 221.168 125.972C224.408 128.019 225.759 131.957 227.524 135.368C227.99 136.27 228.54 137.192 229.381 137.762C229.041 132.608 227.318 127.642 224.393 123.387C221.469 119.132 217.451 115.746 212.765 113.588Z" fill="#632652"/>
<path id="Vector_39" opacity="0.1" d="M168.917 134.933C168.917 134.933 198.403 98.2268 232.517 134.933L229.568 126.71C229.568 126.71 213.561 103.306 202.193 108.357C190.825 113.408 179.659 117.003 179.659 117.003L168.917 134.933Z" fill="black"/>
<path id="Vector_40" d="M168.917 134.283C168.917 134.283 198.403 97.5765 232.517 134.283L229.568 126.06C229.568 126.06 213.561 102.656 202.193 107.707C190.825 112.758 179.659 116.353 179.659 116.353L168.917 134.283Z" fill="#E14B5A"/>
<path id="Vector_41" opacity="0.1" d="M144.697 213.358C144.697 213.358 138.382 230.227 147.224 245.408C156.066 260.589 139.434 266.917 139.434 266.917" fill="black"/>
<path id="Vector_42" opacity="0.1" d="M247.045 198.176C247.045 198.176 257.995 212.093 250.834 224.533C243.674 236.973 244.096 266.917 244.096 266.917" fill="black"/>
<path id="Vector_43" opacity="0.1" d="M170.602 117.729C170.602 117.729 199.579 88.731 230.831 117.199" stroke="black" stroke-miterlimit="10"/>
<path id="Vector_44" d="M238.151 115.882H235.242V132.396H238.151V115.882Z" fill="#6A5C99"/>
<path id="Vector_45" d="M231.361 126.567C234.02 126.567 236.57 127.624 238.45 129.507C240.331 131.389 241.387 133.943 241.387 136.605V137.251C241.387 139.914 240.331 142.467 238.45 144.35C236.57 146.232 234.02 147.29 231.361 147.29V126.567Z" fill="#8338EC"/>
<path id="Vector_46" d="M233.947 127.863C233.947 126.612 232.934 125.597 231.684 125.597C230.434 125.597 229.421 126.612 229.421 127.863V145.997C229.421 147.249 230.434 148.263 231.684 148.263C232.934 148.263 233.947 147.249 233.947 145.997V127.863Z" fill="#6A5C99"/>
<path id="Vector_47" d="M162.983 132.719H165.892V116.205H162.983V132.719Z" fill="#6A5C99"/>
<path id="Vector_48" d="M169.773 147.613C167.114 147.613 164.564 146.555 162.684 144.673C160.804 142.79 159.748 140.237 159.748 137.575V136.928C159.748 135.61 160.007 134.305 160.511 133.087C161.015 131.869 161.753 130.762 162.684 129.83C163.615 128.898 164.72 128.159 165.937 127.654C167.153 127.15 168.457 126.89 169.773 126.89V147.613Z" fill="#8338EC"/>
<path id="Vector_49" d="M167.187 146.316C167.187 147.568 168.201 148.583 169.451 148.583C170.701 148.583 171.714 147.568 171.714 146.316V128.183C171.714 126.931 170.701 125.916 169.451 125.916C168.201 125.916 167.187 126.931 167.187 128.183V146.316Z" fill="#6A5C99"/>
<path id="Vector_50" d="M234.9 98.2308C230.959 90.0277 222.376 80.109 203.875 79.315V79.291H203.652L197.097 79.6022V79.6342C178.719 80.48 170.176 90.3628 166.247 98.538C163.63 104.08 162.241 110.123 162.175 116.253L164.438 116.197L166.701 116.145C166.799 110.688 168.052 105.313 170.379 100.377C175.368 90.1155 184.549 84.6614 197.663 84.1546L203.46 83.8315C216.582 84.3342 225.767 89.7963 230.752 100.054C233.082 104.992 234.339 110.369 234.438 115.83L236.701 115.882L238.964 115.938C238.899 109.811 237.513 103.771 234.9 98.2308Z" fill="#8338EC"/>
<path id="Vector_51" opacity="0.1" d="M190.845 113.432L190.884 113.408C189.979 113.743 189.097 114.121 188.239 114.541C183.422 116.902 179.363 120.568 176.525 125.124C173.687 129.68 172.183 134.942 172.184 140.312C172.184 140.543 172.184 140.774 172.184 141.006C173.075 140.982 173.95 140.771 174.754 140.387C181.735 137.124 185.911 127.141 187.569 120.179C188.167 117.685 188.729 114.876 190.845 113.432Z" fill="black"/>
<path id="Vector_52" opacity="0.1" d="M212.765 114.234C210.498 113.191 208.104 112.452 205.644 112.036C207.661 112.5 209.463 113.634 210.756 115.251C211.39 116.115 211.916 117.053 212.322 118.044C208.511 116.376 204.383 115.556 200.224 115.642C196.065 115.728 191.974 116.718 188.235 118.543C190.032 122.489 195.606 124.64 199.328 126.08C203.403 127.655 207.521 129.095 211.681 130.401L207.999 127.408L216.315 128.733C216.405 127.076 216.208 125.416 215.733 123.826C217.327 125.11 219.439 125.541 221.168 126.618C224.408 128.665 225.759 132.603 227.524 136.015C227.99 136.916 228.54 137.838 229.381 138.408C229.041 133.254 227.318 128.288 224.393 124.033C221.469 119.778 217.451 116.393 212.765 114.234Z" fill="black"/>
</g>
<g id="pc">
<path id="Vector_53" d="M135.011 279.357H256.732C259.413 279.357 261.984 280.424 263.88 282.322C265.776 284.22 266.841 286.795 266.841 289.48H124.905C124.905 286.796 125.97 284.222 127.865 282.324C129.76 280.425 132.33 279.358 135.011 279.357Z" fill="#535461"/>
<path id="Vector_54" d="M147.395 209.771H244.351C246.392 209.771 248.413 210.173 250.299 210.955C252.184 211.737 253.897 212.883 255.34 214.328C256.783 215.773 257.928 217.489 258.709 219.376C259.49 221.264 259.892 223.288 259.892 225.331V281.676H131.855V225.331C131.855 221.204 133.492 217.246 136.406 214.328C139.321 211.41 143.274 209.771 147.395 209.771Z" fill="#535461"/>
<path id="dot" d="M195.766 256.48C199.954 256.48 203.349 253.08 203.349 248.887C203.349 244.694 199.954 241.294 195.766 241.294C191.578 241.294 188.183 244.694 188.183 248.887C188.183 253.08 191.578 256.48 195.766 256.48Z" fill="#6B6C7C"/>
</g>
<g id="desk">
<path id="Vector_66" d="M338.299 289.611H29.5981V372.6H338.299V289.611Z" fill="#D6D6E3"/>
<path id="Vector_67" opacity="0.1" d="M338.299 295.197H29.5981V305.97H338.299V295.197Z" fill="black"/>
<path id="Vector_68" d="M359 288.414H8.88965V299.187H359V288.414Z" fill="#D6D6E3"/>
<a>
<text class="skills__text" x="34%" y="85%" fill="#000000">Kliknij na ikonę.</text>
</a>
</g>
</g>
</g>
<g id="icons">
<g id="sass">
<g id="Ellipse 10" filter="url(#filter0_dd)">
<path id="Vector_55" d="M78.1641 224.328C90.9573 224.328 101.328 213.957 101.328 201.164C101.328 188.371 90.9573 178 78.1641 178C65.3709 178 55 188.371 55 201.164C55 213.957 65.3709 224.328 78.1641 224.328Z" fill="#222222"/>
</g>
<path id="Vector_55_2" d="M78.8569 207.561C78.8239 207.62 78.8404 207.594 78.8569 207.561V207.561ZM92.5424 202.8C91.4371 202.8 90.3472 203.051 89.3561 203.538C89.032 202.887 88.6969 202.318 88.642 201.891C88.5761 201.393 88.5046 201.098 88.5816 200.507C88.6585 199.915 89.0046 199.078 88.9991 199.018C88.9936 198.958 88.9222 198.657 88.2135 198.651C87.5048 198.646 86.895 198.788 86.8236 198.974C86.6982 199.314 86.6009 199.664 86.5325 200.019C86.4061 200.66 85.1162 202.947 84.3856 204.14C84.1439 203.675 83.9406 203.265 83.8967 202.936C83.8308 202.438 83.7593 202.143 83.8362 201.552C83.9132 200.961 84.2592 200.123 84.2538 200.063C84.2483 200.003 84.1768 199.702 83.4693 199.697C82.7617 199.691 82.1508 199.833 82.0794 200.019C82.008 200.206 81.9311 200.643 81.7883 201.065C81.6454 201.486 79.926 205.295 79.4766 206.286C79.2459 206.789 79.0481 207.194 78.9053 207.468C78.8833 207.511 78.8668 207.539 78.8558 207.561C78.8723 207.533 78.8833 207.506 78.8833 207.517C78.7624 207.752 78.691 207.884 78.691 207.884V207.889C78.5976 208.064 78.4932 208.223 78.4438 208.223C78.4108 208.223 78.3394 207.763 78.4603 207.134C78.7185 205.809 79.3283 203.752 79.3228 203.681C79.3173 203.642 79.4381 203.287 78.9217 203.095C78.4218 202.914 78.2405 203.215 78.1966 203.215C78.1526 203.215 78.1197 203.325 78.1197 203.325C78.1197 203.325 78.6745 201.005 77.0539 201.005C76.0431 201.005 74.6368 202.11 73.9457 203.111C73.5117 203.347 72.5723 203.856 71.5835 204.398L70.4463 205.021C70.4188 204.994 70.3969 204.967 70.3694 204.939C68.4027 202.849 64.7726 201.371 64.9264 198.564C64.9813 197.54 65.3384 194.853 71.9076 191.592C77.2913 188.921 81.5949 189.654 82.3365 191.285C83.4023 193.611 80.0347 197.94 74.4445 198.564C72.313 198.799 71.1934 197.978 70.9133 197.672C70.6221 197.349 70.5782 197.332 70.4683 197.393C70.287 197.491 70.4024 197.776 70.4683 197.945C70.6331 198.378 71.3198 199.144 72.4899 199.527C73.5172 199.861 76.0157 200.047 79.036 198.881C82.4299 197.579 85.0723 193.95 84.2966 190.913C83.5077 187.827 78.3702 186.814 73.5128 188.533C70.6177 189.556 67.4875 191.165 65.2362 193.261C62.5609 195.756 62.1335 197.929 62.3093 198.837C62.9356 202.061 67.3952 204.162 69.1795 205.716L68.9323 205.853C68.0368 206.297 64.6375 208.07 63.786 209.941C62.8246 212.065 63.9453 213.586 64.6803 213.794C66.9766 214.429 69.3267 213.285 70.5902 211.408C71.8538 209.531 71.6999 207.079 71.1176 205.963C71.1121 205.946 71.1011 205.935 71.0956 205.919C71.7548 205.53 72.4196 205.15 73.0898 204.781C72.8701 205.372 72.7107 206.083 72.6283 207.112C72.5295 208.316 73.0294 209.876 73.6776 210.488C73.9633 210.757 74.3083 210.762 74.5236 210.762C75.2817 210.762 75.6223 210.138 76.0014 209.394C76.4683 208.486 76.8803 207.429 76.8803 207.429C76.8803 207.429 76.3639 210.286 77.7758 210.286C78.2922 210.286 78.8086 209.624 79.0393 209.285V209.29C79.0393 209.29 79.0503 209.268 79.0777 209.224C79.1327 209.142 79.1602 209.093 79.1602 209.093V209.077C79.3689 208.721 79.8249 207.905 80.5116 206.559C81.4015 204.819 82.2519 202.646 82.2519 202.646C82.3343 203.124 82.4486 203.595 82.5925 204.058C82.7463 204.578 83.0704 205.147 83.3286 205.7C83.1199 205.985 82.9935 206.149 82.9935 206.149C82.9935 206.153 82.9957 206.156 82.999 206.16C82.8342 206.379 82.6474 206.614 82.4552 206.844C81.7531 207.676 80.917 208.628 80.8071 208.901C80.6753 209.224 80.7082 209.465 80.9609 209.651C81.1477 209.793 81.4773 209.815 81.8234 209.788C82.4552 209.744 82.9001 209.591 83.1144 209.492C83.5096 209.351 83.8831 209.156 84.2241 208.912C84.9108 208.409 85.3283 207.687 85.2898 206.734C85.2679 206.209 85.0976 205.684 84.8888 205.191C84.9492 205.103 85.0152 205.01 85.0756 204.917C85.7905 203.855 86.4346 202.747 87.0038 201.6C87.0862 202.077 87.1994 202.549 87.3444 203.012C87.4763 203.455 87.7345 203.942 87.9707 204.418C86.9489 205.245 86.3171 206.202 86.0985 206.832C85.692 207.997 86.0106 208.523 86.6094 208.643C86.8786 208.698 87.2631 208.572 87.5488 208.452C87.9729 208.31 88.3728 208.106 88.7343 207.844C89.421 207.341 90.0857 206.635 90.0406 205.677C90.0242 205.245 89.9033 204.812 89.744 204.396C90.6065 204.035 91.7272 203.838 93.1555 204.002C96.2143 204.358 96.8131 206.263 96.6977 207.056C96.5823 207.85 95.9396 208.293 95.7253 208.424C95.5111 208.556 95.4452 208.605 95.4617 208.703C95.4891 208.846 95.588 208.84 95.7693 208.807C96.022 208.764 97.3734 208.162 97.4338 206.689C97.5217 204.829 95.7253 202.782 92.5446 202.798L92.5424 202.8ZM68.9653 210.718C67.9544 211.818 66.5382 212.234 65.9284 211.884C65.2747 211.505 65.5329 209.887 66.7788 208.714C67.5369 208.003 68.5148 207.346 69.163 206.941C69.3113 206.854 69.5256 206.722 69.7893 206.564C69.8107 206.55 69.8327 206.537 69.8552 206.525C69.9047 206.492 69.9596 206.465 70.0145 206.432C70.4694 208.096 70.031 209.563 68.9653 210.717V210.718ZM76.3464 205.716C75.9948 206.576 75.2543 208.765 74.8027 208.65C74.4181 208.551 74.1819 206.882 74.7258 205.24C75.0004 204.414 75.5828 203.429 75.9289 203.046C76.4837 202.427 77.0935 202.23 77.2363 202.477C77.4286 202.8 76.5661 205.18 76.3464 205.716ZM82.4442 208.617C82.2959 208.693 82.1585 208.743 82.0926 208.704C82.0432 208.677 82.153 208.573 82.153 208.573C82.153 208.573 82.9166 207.758 83.2188 207.386C83.3946 207.167 83.5978 206.909 83.8176 206.625C83.8176 206.652 83.8231 206.68 83.8231 206.712C83.8165 207.692 82.8716 208.354 82.4431 208.617H82.4442ZM87.1466 207.55C87.0368 207.473 87.0533 207.216 87.4213 206.417C87.5642 206.105 87.8938 205.58 88.4651 205.076C88.5299 205.267 88.5651 205.466 88.5695 205.667C88.564 206.898 87.6795 207.358 87.1466 207.55Z" fill="#8338EC"/>
</g>
<g id="firebase">
<g id="Ellipse 7" filter="url(#filter1_dd)">
<path id="Vector_56" d="M87.1641 172.328C99.9573 172.328 110.328 161.957 110.328 149.164C110.328 136.371 99.9573 126 87.1641 126C74.3709 126 64 136.371 64 149.164C64 161.957 74.3709 172.328 87.1641 172.328Z" fill="#222222"/>
</g>
<g id="Group">
<path id="Vector_56_2" d="M80.6309 154.331L81.9376 139.958L85.8576 143.878L80.6309 154.331ZM80.6309 154.331L92.3911 143.878L93.6978 155.638L87.1643 158.251L80.6309 154.331ZM80.6309 154.331L87.1643 142.571L89.7777 146.491L80.6309 154.331Z" stroke="#8338EC" stroke-width="5" stroke-linejoin="round"/>
</g>
</g>
<g id="figma">
<g id="Ellipse 10_4" filter="url(#filter2_dd)">
<path id="Vector_57" d="M120.164 127.328C132.957 127.328 143.328 116.957 143.328 104.164C143.328 91.3709 132.957 81 120.164 81C107.371 81 97 91.3709 97 104.164C97 116.957 107.371 127.328 120.164 127.328Z" fill="#222222"/>
</g>
<g id="Group_2">
<g id="Group_3">
<path id="Vector_58" fill-rule="evenodd" clip-rule="evenodd" d="M117.237 94.3641C115.238 94.3641 113.631 96.0411 113.631 98.0941C113.631 99.3431 114.226 100.452 115.139 101.129C114.668 101.482 114.287 101.94 114.025 102.467C113.763 102.994 113.628 103.575 113.631 104.164C113.631 105.414 114.226 106.522 115.139 107.199C114.668 107.552 114.287 108.01 114.025 108.537C113.763 109.064 113.628 109.645 113.631 110.234C113.631 112.287 115.238 113.964 117.237 113.964C119.234 113.964 120.842 112.287 120.842 110.234V107.08C121.474 107.606 122.27 107.895 123.092 107.895C125.09 107.895 126.698 106.218 126.698 104.164C126.698 102.914 126.104 101.806 125.189 101.129C125.66 100.776 126.042 100.318 126.304 99.7911C126.566 99.2641 126.701 98.6831 126.698 98.0941C126.698 96.0411 125.09 94.3641 123.092 94.3641H117.237ZM114.986 98.0941C114.986 96.7951 116 95.7551 117.237 95.7551H119.487V100.434H117.237C116 100.434 114.986 99.3931 114.986 98.0941ZM123.092 100.433H120.842V95.7541H123.092C124.329 95.7541 125.343 96.7951 125.343 98.0941C125.343 99.3931 124.329 100.433 123.092 100.433ZM114.987 104.164C114.987 102.865 116.001 101.824 117.237 101.824H119.487V106.504H117.237C115.999 106.504 114.986 105.463 114.986 104.164H114.987ZM120.842 104.164C120.842 102.865 121.857 101.824 123.093 101.824C124.33 101.824 125.344 102.865 125.344 104.164C125.344 105.463 124.33 106.504 123.093 106.504C121.857 106.504 120.843 105.463 120.843 104.164H120.842ZM114.987 110.234C114.987 108.935 116.001 107.895 117.237 107.895H119.487V110.234C119.487 111.533 118.475 112.573 117.237 112.573C116.001 112.573 114.987 111.533 114.987 110.234Z" fill="#8338EC"/>
</g>
</g>
</g>
<g id="css">
<g id="Ellipse 10_5" filter="url(#filter3_dd)">
<path id="Vector_59" d="M100.164 75.3282C112.957 75.3282 123.328 64.9573 123.328 52.1641C123.328 39.3709 112.957 29 100.164 29C87.3709 29 77 39.3709 77 52.1641C77 64.9573 87.3709 75.3282 100.164 75.3282Z" fill="#222222"/>
</g>
<g id="Group_4">
<path id="Vector_62" d="M112.183 40L109.16 61.9158L100.091 64.9386L91.0229 61.9158L88 40H112.183Z" stroke="#8338EC" stroke-width="2" stroke-linecap="round" stroke-linejoin="round"/>
<path id="Vector_63" d="M94.8013 46.0458H105.381L98.5798 52.0915H104.626L103.87 57.3815L100.091 58.5151L96.3127 57.3815L96.1616 56.6258" stroke="#8338EC" stroke-width="3" stroke-linecap="round" stroke-linejoin="round"/>
</g>
</g>
<g id="html">
<g id="Ellipse 10_6" filter="url(#filter4_dd)">
<path id="Vector_60" d="M164.164 62.3282C176.957 62.3282 187.328 51.9573 187.328 39.1641C187.328 26.3709 176.957 16 164.164 16C151.371 16 141 26.3709 141 39.1641C141 51.9573 151.371 62.3282 164.164 62.3282Z" fill="#222222"/>
</g>
<path id="Vector_65" d="M152.316 25.7L154.425 49.3433L163.885 51.9705L173.371 49.34L175.482 25.7H152.318H152.316ZM171.563 47.8361L163.938 49.9492V49.9608L163.918 49.9542L163.898 49.9608V49.9492L156.273 47.8361L154.471 27.6341H173.366L171.563 47.8361ZM167.458 39.3014L167.123 43.0615L163.885 43.935L160.656 43.0648L160.449 40.7496H157.538L157.943 45.3042L163.897 46.951L169.832 45.3042L170.629 36.4019H160.06L159.795 33.4317H170.891L171.151 30.5321H156.625L157.408 39.3014H167.458Z" fill="#8338EC"/>
</g>
<g id="js">
<g id="Ellipse 10_3" filter="url(#filter5_dd)">
<path id="Vector_61" d="M224.164 62.3282C236.957 62.3282 247.328 51.9573 247.328 39.1641C247.328 26.3709 236.957 16 224.164 16C211.371 16 201 26.3709 201 39.1641C201 51.9573 211.371 62.3282 224.164 62.3282Z" fill="#222222"/>
</g>
<path id="Vector_60_2" d="M210.7 25.7V51.9705H236.97V25.7H210.7ZM224.997 46.188C224.997 48.7447 223.496 49.9119 221.309 49.9119C219.333 49.9119 218.189 48.892 217.603 47.6545L219.614 46.4404C220.002 47.1263 220.353 47.7071 221.203 47.7071C222.012 47.7071 222.528 47.39 222.528 46.1534V37.7619H224.997V46.188ZM230.836 49.9119C228.543 49.9119 227.06 48.8216 226.338 47.3899L228.35 46.2294C228.878 47.0916 229.57 47.7305 230.784 47.7305C231.804 47.7305 232.461 47.2201 232.461 46.5108C232.461 45.6664 231.792 45.3671 230.661 44.8689L230.045 44.6053C228.263 43.8491 227.084 42.8931 227.084 40.8815C227.084 39.0285 228.497 37.6211 230.696 37.6211C232.268 37.6211 233.394 38.1662 234.204 39.597L232.28 40.8288C231.858 40.0726 231.4 39.7733 230.691 39.7733C229.97 39.7733 229.512 40.2312 229.512 40.8288C229.512 41.5682 229.97 41.8666 231.031 42.3301L231.647 42.5938C233.747 43.4906 234.925 44.4121 234.925 46.4752C234.925 48.6923 233.177 49.9109 230.837 49.9109L230.836 49.9119Z" fill="#8338EC"/>
</g>
<g id="react">
<g id="Ellipse 11" filter="url(#filter6_dd)">
<path id="Vector_64" d="M284.164 75.3282C296.957 75.3282 307.328 64.9573 307.328 52.1641C307.328 39.3709 296.957 29 284.164 29C271.371 29 261 39.3709 261 52.1641C261 64.9573 271.371 75.3282 284.164 75.3282Z" fill="#222222"/>
</g>
<path id="Vector_64_2" d="M293.95 46.9288C293.613 46.8167 293.277 46.7109 292.94 46.6113C292.996 46.381 293.046 46.1507 293.096 45.9204C293.863 42.2106 293.358 39.2291 291.655 38.2456C290.015 37.3057 287.34 38.283 284.633 40.6358C284.365 40.8661 284.103 41.1089 283.854 41.3516C283.686 41.1898 283.511 41.028 283.336 40.8723C280.499 38.3577 277.655 37.2995 275.953 38.2892C274.319 39.2353 273.833 42.0426 274.519 45.5532C274.587 45.9017 274.662 46.2441 274.749 46.5926C274.35 46.7047 273.957 46.8292 273.589 46.9599C270.259 48.1114 267.871 49.929 267.871 51.8088C267.871 53.7508 270.415 55.6991 273.876 56.8817C274.157 56.9751 274.437 57.0684 274.724 57.1494C274.631 57.5228 274.55 57.8901 274.475 58.2698C273.82 61.7243 274.331 64.4631 275.965 65.403C277.649 66.374 280.48 65.3781 283.237 62.9692C283.455 62.7763 283.673 62.5771 283.891 62.3655C284.166 62.6331 284.453 62.8883 284.739 63.1373C287.409 65.4279 290.046 66.3554 291.674 65.4155C293.358 64.4444 293.907 61.5003 293.196 57.915C293.139 57.6411 293.077 57.361 293.009 57.0747C293.208 57.0186 293.401 56.9564 293.595 56.8942C297.193 55.7053 299.8 53.7819 299.8 51.8088C299.8 49.9227 297.343 48.0927 293.95 46.9288ZM285.513 41.6442C287.833 39.6275 289.996 38.8369 290.982 39.4034C292.036 40.0071 292.441 42.4471 291.78 45.6527C291.736 45.8644 291.693 46.0698 291.637 46.2752C290.252 45.964 288.849 45.7399 287.44 45.6154C286.629 44.4576 285.743 43.3497 284.783 42.3102C285.026 42.0799 285.263 41.862 285.513 41.6442ZM278.298 55.0393C278.616 55.5808 278.94 56.1223 279.283 56.6514C278.31 56.5456 277.343 56.39 276.389 56.1846C276.664 55.2882 277.007 54.3608 277.406 53.4147C277.693 53.9624 277.986 54.504 278.298 55.0393ZM276.408 47.5512C277.306 47.352 278.26 47.1902 279.252 47.0657C278.921 47.5823 278.597 48.1114 278.291 48.6467C277.986 49.1758 277.686 49.7173 277.406 50.2651C277.013 49.3376 276.682 48.4289 276.408 47.5512ZM278.117 51.8399C278.528 50.9809 278.977 50.1406 279.451 49.3127C279.925 48.4849 280.437 47.6819 280.973 46.8914C281.908 46.8229 282.862 46.7856 283.835 46.7856C284.808 46.7856 285.768 46.8229 286.698 46.8914C287.228 47.6757 287.733 48.4787 288.213 49.3003C288.693 50.1219 289.142 50.9622 289.566 51.815C289.148 52.674 288.699 53.5205 288.219 54.3546C287.745 55.1824 287.24 55.9854 286.71 56.7821C285.781 56.8506 284.814 56.8817 283.835 56.8817C282.856 56.8817 281.908 56.8506 280.992 56.7946C280.449 56.0041 279.938 55.1949 279.457 54.367C278.977 53.5392 278.535 52.6989 278.117 51.8399ZM289.379 55.0268C289.697 54.4791 289.996 53.9251 290.29 53.3649C290.689 54.2674 291.038 55.1824 291.343 56.1223C290.377 56.3402 289.398 56.5082 288.413 56.6203C288.749 56.0974 289.067 55.5621 289.379 55.0268ZM290.277 50.2651C289.984 49.7173 289.685 49.1696 289.373 48.6343C289.067 48.1052 288.749 47.5823 288.419 47.0657C289.423 47.1902 290.383 47.3583 291.281 47.5637C290.994 48.4849 290.658 49.3812 290.277 50.2651ZM283.848 43.2625C284.502 43.9721 285.12 44.7191 285.694 45.4909C284.459 45.4349 283.218 45.4349 281.983 45.4909C282.594 44.688 283.224 43.941 283.848 43.2625ZM276.614 39.4469C277.662 38.8369 279.988 39.7084 282.438 41.8745C282.594 42.0114 282.75 42.1608 282.912 42.3102C281.946 43.3497 281.054 44.4576 280.237 45.6154C278.828 45.7399 277.431 45.9577 276.046 46.2627C275.965 45.9453 275.897 45.6216 275.828 45.298C275.242 42.2853 275.629 40.0134 276.614 39.4469ZM275.086 55.8547C274.824 55.78 274.568 55.6991 274.313 55.6119C272.984 55.1949 271.475 54.5351 270.384 53.6699C269.754 53.2342 269.33 52.5619 269.212 51.8088C269.212 50.6697 271.182 49.2131 274.026 48.2235C274.381 48.099 274.743 47.9869 275.105 47.8811C275.529 49.2318 276.04 50.5576 276.633 51.8399C276.034 53.1408 275.516 54.4853 275.086 55.8547ZM282.357 61.9547C281.328 62.8945 280.137 63.6415 278.84 64.1519C278.148 64.4818 277.35 64.5129 276.639 64.2328C275.647 63.6602 275.236 61.4629 275.797 58.5063C275.866 58.1577 275.94 57.8092 276.028 57.4668C277.425 57.7656 278.834 57.971 280.262 58.0768C281.085 59.2408 281.989 60.355 282.956 61.4007C282.756 61.5936 282.557 61.7804 282.357 61.9547ZM283.885 60.4421C283.249 59.7574 282.613 58.998 281.996 58.1826C282.594 58.2075 283.212 58.22 283.835 58.22C284.478 58.22 285.107 58.2075 285.731 58.1764C285.157 58.9669 284.54 59.7201 283.885 60.4421ZM292.036 62.3094C291.98 63.0688 291.605 63.7784 291.007 64.2577C290.015 64.8304 287.901 64.0834 285.619 62.1289C285.357 61.9049 285.095 61.6621 284.827 61.4131C285.781 60.3612 286.66 59.247 287.458 58.0768C288.886 57.9585 290.308 57.7407 291.711 57.4232C291.774 57.6784 291.83 57.9336 291.88 58.1826C292.185 59.5271 292.235 60.9276 292.036 62.3094ZM293.171 55.6181C292.996 55.6742 292.821 55.7302 292.641 55.78C292.204 54.423 291.668 53.0972 291.05 51.8088C291.649 50.539 292.154 49.2318 292.578 47.8936C292.903 47.9869 293.214 48.0865 293.514 48.1861C296.42 49.182 298.459 50.6634 298.459 51.7963C298.459 53.0163 296.282 54.5911 293.171 55.6181ZM283.835 54.6845C285.413 54.6845 286.691 53.4084 286.691 51.8337C286.691 50.2589 285.413 48.9828 283.835 48.9828C282.258 48.9828 280.979 50.2589 280.979 51.8337C280.979 53.4084 282.258 54.6845 283.835 54.6845Z" fill="#8338EC"/>
</g>
<g id="bem">
<g id="Ellipse 10_2" filter="url(#filter7_dd)">
<path id="Vector_69" d="M274.164 138.328C286.957 138.328 297.328 127.957 297.328 115.164C297.328 102.371 286.957 91.9999 274.164 91.9999C261.371 91.9999 251 102.371 251 115.164C251 127.957 261.371 138.328 274.164 138.328Z" fill="#222222"/>
</g>
<path id="Vector_58_2" d="M263.933 107.223H270.358V109.109H263.933V107.223ZM263.933 103.721H270.358V105.607H263.933V103.721ZM275.461 110.699H263.933V112.585H275.029C276.244 112.585 279.078 112.612 280.131 114.31V113.259C279.618 111.588 278.107 110.699 275.461 110.699ZM275.488 114.202H263.933V116.088H275.029C277.729 116.088 279.429 116.196 280.131 116.573V115.738C279.591 114.417 277.324 114.202 275.488 114.202ZM275.461 123.093H263.933V121.207H275.029C276.244 121.207 279.078 121.18 280.131 119.483V120.534C279.618 122.204 278.107 123.093 275.461 123.093ZM275.488 119.591H263.933V117.705H275.029C277.729 117.705 279.429 117.597 280.131 117.22V118.055C279.591 119.375 277.324 119.591 275.488 119.591ZM282.939 126.354H291.416V125.195H283.182C282.453 125.195 280.725 125.168 280.104 124.171V124.818C280.401 125.815 281.319 126.354 282.939 126.354ZM282.912 124.225H291.389V123.066H283.182C281.535 123.066 280.509 123.013 280.104 122.77V123.282C280.428 124.09 281.805 124.225 282.912 124.225Z" fill="#8338EC"/>
</g>
<g id="git">
<g id="Ellipse 8" filter="url(#filter8_dd)">
<path id="Vector_70" d="M319.164 184.328C331.957 184.328 342.328 173.957 342.328 161.164C342.328 148.371 331.957 138 319.164 138C306.371 138 296 148.371 296 161.164C296 173.957 306.371 184.328 319.164 184.328Z" fill="#222222"/>
</g>
<path id="Vector_59_2" d="M312.292 165.521C314.997 165.705 315.575 165.638 315.575 166.186C315.575 167.299 311.925 167.303 311.925 166.27C311.925 165.987 312.108 165.747 312.292 165.521ZM313.848 159.026C312.05 159.026 311.969 161.502 313.807 161.502C315.617 161.502 315.572 159.026 313.848 159.026ZM331.637 151.364V170.964C331.637 171.673 331.355 172.353 330.854 172.854C330.353 173.355 329.673 173.637 328.964 173.637H309.364C308.655 173.637 307.975 173.355 307.474 172.854C306.973 172.353 306.691 171.673 306.691 170.964V151.364C306.691 150.655 306.973 149.975 307.474 149.474C307.975 148.973 308.655 148.691 309.364 148.691H328.964C329.673 148.691 330.353 148.973 330.854 149.474C331.355 149.975 331.637 150.655 331.637 151.364ZM318.997 155.223C318.997 156.03 319.463 156.497 320.27 156.497C321.091 156.497 321.558 156.03 321.558 155.223C321.558 154.416 321.092 153.981 320.271 153.981C319.465 153.981 318.997 154.418 318.997 155.223ZM317.782 157.767H315.023C313.631 157.403 310.481 157.497 310.481 160.371C310.481 161.417 311.005 162.152 311.698 162.493C310.824 163.293 310.411 163.67 310.411 164.204C310.411 164.587 310.566 164.94 311.033 165.138C310.537 165.605 310.254 165.944 310.254 166.581C310.255 167.698 311.231 168.347 313.792 168.347C316.254 168.347 317.682 167.428 317.682 165.801C317.682 163.759 316.11 163.834 312.405 163.608L312.872 162.86C313.818 163.124 317.003 163.207 317.003 160.498C317.003 159.847 316.734 159.394 316.479 159.068L317.781 158.969L317.782 157.767ZM322.478 163.884L321.754 163.784C321.542 163.756 321.528 163.729 321.528 163.501V157.629H318.599L318.443 158.775C319.32 159.084 319.39 159.045 319.39 159.341V163.503C319.39 163.816 319.373 163.758 318.443 163.885V165.002H322.476L322.478 163.884ZM328.073 164.449L327.691 163.204C325.411 164.06 325.583 162.513 325.583 162.272V158.891H327.691V157.476H325.696C325.536 157.476 325.585 157.617 325.585 155.325H324.238C324.083 156.868 323.588 157.49 322.345 157.632V158.891C323.485 158.891 323.449 158.844 323.449 159.033V162.739C323.449 164.339 324.085 165.017 325.769 165.017C326.574 165.017 327.465 164.748 328.073 164.449Z" fill="#8338EC"/>
</g>
<g id="npm">
<g id="Ellipse 9" filter="url(#filter9_dd)">
<path id="Vector_71" d="M314.164 239.328C326.957 239.328 337.328 228.957 337.328 216.164C337.328 203.371 326.957 193 314.164 193C301.371 193 291 203.371 291 216.164C291 228.957 301.371 239.328 314.164 239.328Z" fill="#222222"/>
</g>
<path id="Vector_57_2" d="M299.612 210.522V220.2H307.693V221.807H314.164V220.2H328.716V210.522H299.612ZM307.693 218.578H306.082V213.74H304.462V218.578H301.232V212.133H307.693V218.578ZM312.544 218.578V220.2H309.314V212.133H315.785V218.583H312.544V218.578ZM327.1 218.578H325.485V213.74H323.865V218.578H322.246V213.74H320.635V218.578H317.394V212.133H327.1V218.578ZM312.544 213.744H314.164V216.972H312.544V213.744Z" fill="#8338EC"/>
</g>
</g>
</g>
<defs>
<filter id="filter0_dd" x="39" y="162" width="78.3282" height="78.3282" filterUnits="userSpaceOnUse" color-interpolation-filters="sRGB">
<feFlood flood-opacity="0" result="BackgroundImageFix"/>
<feColorMatrix in="SourceAlpha" type="matrix" values="0 0 0 0 0 0 0 0 0 0 0 0 0 0 0 0 0 0 127 0"/>
<feOffset dx="-4" dy="-4"/>
<feGaussianBlur stdDeviation="6"/>
<feColorMatrix type="matrix" values="0 0 0 0 0.833333 0 0 0 0 0.833333 0 0 0 0 0.833333 0 0 0 0.25 0"/>
<feBlend mode="normal" in2="BackgroundImageFix" result="effect1_dropShadow"/>
<feColorMatrix in="SourceAlpha" type="matrix" values="0 0 0 0 0 0 0 0 0 0 0 0 0 0 0 0 0 0 127 0"/>
<feOffset dx="4" dy="4"/>
<feGaussianBlur stdDeviation="6"/>
<feColorMatrix type="matrix" values="0 0 0 0 0 0 0 0 0 0 0 0 0 0 0 0 0 0 0.87 0"/>
<feBlend mode="normal" in2="effect1_dropShadow" result="effect2_dropShadow"/>
<feBlend mode="normal" in="SourceGraphic" in2="effect2_dropShadow" result="shape"/>
</filter>
<filter id="filter1_dd" x="48" y="110" width="78.3282" height="78.3282" filterUnits="userSpaceOnUse" color-interpolation-filters="sRGB">
<feFlood flood-opacity="0" result="BackgroundImageFix"/>
<feColorMatrix in="SourceAlpha" type="matrix" values="0 0 0 0 0 0 0 0 0 0 0 0 0 0 0 0 0 0 127 0"/>
<feOffset dx="-4" dy="-4"/>
<feGaussianBlur stdDeviation="6"/>
<feColorMatrix type="matrix" values="0 0 0 0 0.833333 0 0 0 0 0.833333 0 0 0 0 0.833333 0 0 0 0.25 0"/>
<feBlend mode="normal" in2="BackgroundImageFix" result="effect1_dropShadow"/>
<feColorMatrix in="SourceAlpha" type="matrix" values="0 0 0 0 0 0 0 0 0 0 0 0 0 0 0 0 0 0 127 0"/>
<feOffset dx="4" dy="4"/>
<feGaussianBlur stdDeviation="6"/>
<feColorMatrix type="matrix" values="0 0 0 0 0 0 0 0 0 0 0 0 0 0 0 0 0 0 0.87 0"/>
<feBlend mode="normal" in2="effect1_dropShadow" result="effect2_dropShadow"/>
<feBlend mode="normal" in="SourceGraphic" in2="effect2_dropShadow" result="shape"/>
</filter>
<filter id="filter2_dd" x="81" y="65" width="78.3282" height="78.3282" filterUnits="userSpaceOnUse" color-interpolation-filters="sRGB">
<feFlood flood-opacity="0" result="BackgroundImageFix"/>
<feColorMatrix in="SourceAlpha" type="matrix" values="0 0 0 0 0 0 0 0 0 0 0 0 0 0 0 0 0 0 127 0"/>
<feOffset dx="-4" dy="-4"/>
<feGaussianBlur stdDeviation="6"/>
<feColorMatrix type="matrix" values="0 0 0 0 0.833333 0 0 0 0 0.833333 0 0 0 0 0.833333 0 0 0 0.25 0"/>
<feBlend mode="normal" in2="BackgroundImageFix" result="effect1_dropShadow"/>
<feColorMatrix in="SourceAlpha" type="matrix" values="0 0 0 0 0 0 0 0 0 0 0 0 0 0 0 0 0 0 127 0"/>
<feOffset dx="4" dy="4"/>
<feGaussianBlur stdDeviation="6"/>
<feColorMatrix type="matrix" values="0 0 0 0 0 0 0 0 0 0 0 0 0 0 0 0 0 0 0.87 0"/>
<feBlend mode="normal" in2="effect1_dropShadow" result="effect2_dropShadow"/>
<feBlend mode="normal" in="SourceGraphic" in2="effect2_dropShadow" result="shape"/>
</filter>
<filter id="filter3_dd" x="61" y="13" width="78.3282" height="78.3282" filterUnits="userSpaceOnUse" color-interpolation-filters="sRGB">
<feFlood flood-opacity="0" result="BackgroundImageFix"/>
<feColorMatrix in="SourceAlpha" type="matrix" values="0 0 0 0 0 0 0 0 0 0 0 0 0 0 0 0 0 0 127 0"/>
<feOffset dx="-4" dy="-4"/>
<feGaussianBlur stdDeviation="6"/>
<feColorMatrix type="matrix" values="0 0 0 0 0.833333 0 0 0 0 0.833333 0 0 0 0 0.833333 0 0 0 0.25 0"/>
<feBlend mode="normal" in2="BackgroundImageFix" result="effect1_dropShadow"/>
<feColorMatrix in="SourceAlpha" type="matrix" values="0 0 0 0 0 0 0 0 0 0 0 0 0 0 0 0 0 0 127 0"/>
<feOffset dx="4" dy="4"/>
<feGaussianBlur stdDeviation="6"/>
<feColorMatrix type="matrix" values="0 0 0 0 0 0 0 0 0 0 0 0 0 0 0 0 0 0 0.87 0"/>
<feBlend mode="normal" in2="effect1_dropShadow" result="effect2_dropShadow"/>
<feBlend mode="normal" in="SourceGraphic" in2="effect2_dropShadow" result="shape"/>
</filter>
<filter id="filter4_dd" x="125" y="0" width="78.3282" height="78.3282" filterUnits="userSpaceOnUse" color-interpolation-filters="sRGB">
<feFlood flood-opacity="0" result="BackgroundImageFix"/>
<feColorMatrix in="SourceAlpha" type="matrix" values="0 0 0 0 0 0 0 0 0 0 0 0 0 0 0 0 0 0 127 0"/>
<feOffset dx="-4" dy="-4"/>
<feGaussianBlur stdDeviation="6"/>
<feColorMatrix type="matrix" values="0 0 0 0 0.833333 0 0 0 0 0.833333 0 0 0 0 0.833333 0 0 0 0.25 0"/>
<feBlend mode="normal" in2="BackgroundImageFix" result="effect1_dropShadow"/>
<feColorMatrix in="SourceAlpha" type="matrix" values="0 0 0 0 0 0 0 0 0 0 0 0 0 0 0 0 0 0 127 0"/>
<feOffset dx="4" dy="4"/>
<feGaussianBlur stdDeviation="6"/>
<feColorMatrix type="matrix" values="0 0 0 0 0 0 0 0 0 0 0 0 0 0 0 0 0 0 0.87 0"/>
<feBlend mode="normal" in2="effect1_dropShadow" result="effect2_dropShadow"/>
<feBlend mode="normal" in="SourceGraphic" in2="effect2_dropShadow" result="shape"/>
</filter>
<filter id="filter5_dd" x="185" y="0" width="78.3282" height="78.3282" filterUnits="userSpaceOnUse" color-interpolation-filters="sRGB">
<feFlood flood-opacity="0" result="BackgroundImageFix"/>
<feColorMatrix in="SourceAlpha" type="matrix" values="0 0 0 0 0 0 0 0 0 0 0 0 0 0 0 0 0 0 127 0"/>
<feOffset dx="-4" dy="-4"/>
<feGaussianBlur stdDeviation="6"/>
<feColorMatrix type="matrix" values="0 0 0 0 0.833333 0 0 0 0 0.833333 0 0 0 0 0.833333 0 0 0 0.25 0"/>
<feBlend mode="normal" in2="BackgroundImageFix" result="effect1_dropShadow"/>
<feColorMatrix in="SourceAlpha" type="matrix" values="0 0 0 0 0 0 0 0 0 0 0 0 0 0 0 0 0 0 127 0"/>
<feOffset dx="4" dy="4"/>
<feGaussianBlur stdDeviation="6"/>
<feColorMatrix type="matrix" values="0 0 0 0 0 0 0 0 0 0 0 0 0 0 0 0 0 0 0.87 0"/>
<feBlend mode="normal" in2="effect1_dropShadow" result="effect2_dropShadow"/>
<feBlend mode="normal" in="SourceGraphic" in2="effect2_dropShadow" result="shape"/>
</filter>
<filter id="filter6_dd" x="245" y="13" width="78.3282" height="78.3282" filterUnits="userSpaceOnUse" color-interpolation-filters="sRGB">
<feFlood flood-opacity="0" result="BackgroundImageFix"/>
<feColorMatrix in="SourceAlpha" type="matrix" values="0 0 0 0 0 0 0 0 0 0 0 0 0 0 0 0 0 0 127 0"/>
<feOffset dx="-4" dy="-4"/>
<feGaussianBlur stdDeviation="6"/>
<feColorMatrix type="matrix" values="0 0 0 0 0.833333 0 0 0 0 0.833333 0 0 0 0 0.833333 0 0 0 0.25 0"/>
<feBlend mode="normal" in2="BackgroundImageFix" result="effect1_dropShadow"/>
<feColorMatrix in="SourceAlpha" type="matrix" values="0 0 0 0 0 0 0 0 0 0 0 0 0 0 0 0 0 0 127 0"/>
<feOffset dx="4" dy="4"/>
<feGaussianBlur stdDeviation="6"/>
<feColorMatrix type="matrix" values="0 0 0 0 0 0 0 0 0 0 0 0 0 0 0 0 0 0 0.87 0"/>
<feBlend mode="normal" in2="effect1_dropShadow" result="effect2_dropShadow"/>
<feBlend mode="normal" in="SourceGraphic" in2="effect2_dropShadow" result="shape"/>
</filter>
<filter id="filter7_dd" x="235" y="75.9999" width="78.3282" height="78.3282" filterUnits="userSpaceOnUse" color-interpolation-filters="sRGB">
<feFlood flood-opacity="0" result="BackgroundImageFix"/>
<feColorMatrix in="SourceAlpha" type="matrix" values="0 0 0 0 0 0 0 0 0 0 0 0 0 0 0 0 0 0 127 0"/>
<feOffset dx="-4" dy="-4"/>
<feGaussianBlur stdDeviation="6"/>
<feColorMatrix type="matrix" values="0 0 0 0 0.833333 0 0 0 0 0.833333 0 0 0 0 0.833333 0 0 0 0.25 0"/>
<feBlend mode="normal" in2="BackgroundImageFix" result="effect1_dropShadow"/>
<feColorMatrix in="SourceAlpha" type="matrix" values="0 0 0 0 0 0 0 0 0 0 0 0 0 0 0 0 0 0 127 0"/>
<feOffset dx="4" dy="4"/>
<feGaussianBlur stdDeviation="6"/>
<feColorMatrix type="matrix" values="0 0 0 0 0 0 0 0 0 0 0 0 0 0 0 0 0 0 0.87 0"/>
<feBlend mode="normal" in2="effect1_dropShadow" result="effect2_dropShadow"/>
<feBlend mode="normal" in="SourceGraphic" in2="effect2_dropShadow" result="shape"/>
</filter>
<filter id="filter8_dd" x="280" y="122" width="78.3282" height="78.3282" filterUnits="userSpaceOnUse" color-interpolation-filters="sRGB">
<feFlood flood-opacity="0" result="BackgroundImageFix"/>
<feColorMatrix in="SourceAlpha" type="matrix" values="0 0 0 0 0 0 0 0 0 0 0 0 0 0 0 0 0 0 127 0"/>
<feOffset dx="-4" dy="-4"/>
<feGaussianBlur stdDeviation="6"/>
<feColorMatrix type="matrix" values="0 0 0 0 0.833333 0 0 0 0 0.833333 0 0 0 0 0.833333 0 0 0 0.25 0"/>
<feBlend mode="normal" in2="BackgroundImageFix" result="effect1_dropShadow"/>
<feColorMatrix in="SourceAlpha" type="matrix" values="0 0 0 0 0 0 0 0 0 0 0 0 0 0 0 0 0 0 127 0"/>
<feOffset dx="4" dy="4"/>
<feGaussianBlur stdDeviation="6"/>
<feColorMatrix type="matrix" values="0 0 0 0 0 0 0 0 0 0 0 0 0 0 0 0 0 0 0.87 0"/>
<feBlend mode="normal" in2="effect1_dropShadow" result="effect2_dropShadow"/>
<feBlend mode="normal" in="SourceGraphic" in2="effect2_dropShadow" result="shape"/>
</filter>
<filter id="filter9_dd" x="275" y="177" width="78.3282" height="78.3282" filterUnits="userSpaceOnUse" color-interpolation-filters="sRGB">
<feFlood flood-opacity="0" result="BackgroundImageFix"/>
<feColorMatrix in="SourceAlpha" type="matrix" values="0 0 0 0 0 0 0 0 0 0 0 0 0 0 0 0 0 0 127 0"/>
<feOffset dx="-4" dy="-4"/>
<feGaussianBlur stdDeviation="6"/>
<feColorMatrix type="matrix" values="0 0 0 0 0.833333 0 0 0 0 0.833333 0 0 0 0 0.833333 0 0 0 0.25 0"/>
<feBlend mode="normal" in2="BackgroundImageFix" result="effect1_dropShadow"/>
<feColorMatrix in="SourceAlpha" type="matrix" values="0 0 0 0 0 0 0 0 0 0 0 0 0 0 0 0 0 0 127 0"/>
<feOffset dx="4" dy="4"/>
<feGaussianBlur stdDeviation="6"/>
<feColorMatrix type="matrix" values="0 0 0 0 0 0 0 0 0 0 0 0 0 0 0 0 0 0 0.87 0"/>
<feBlend mode="normal" in2="effect1_dropShadow" result="effect2_dropShadow"/>
<feBlend mode="normal" in="SourceGraphic" in2="effect2_dropShadow" result="shape"/>
</filter>
<linearGradient id="paint0_linear" x1="183.947" y1="293.801" x2="183.947" y2="77.3521" gradientUnits="userSpaceOnUse">
<stop stop-color="#808080" stop-opacity="0.25"/>
<stop offset="0.54" stop-color="#808080" stop-opacity="0.12"/>
<stop offset="1" stop-color="#808080" stop-opacity="0.1"/>
</linearGradient>
</defs>
</svg>
