<svg width="248" height="103" viewBox="0 0 248 103" fill="none" xmlns="http://www.w3.org/2000/svg">
<g id="tittle">
<g id="Rectangle 13" filter="url(#filter0_dd)">
<rect x="16" y="16" width="216" height="71" rx="23" fill="#222222"/>
</g>
<g id="SKILLS" filter="url(#filter1_i)">
<path d="M85.8281 56.0312C85.8281 55.1458 85.5156 54.4688 84.8906 54C84.2656 53.5208 83.1406 53.0208 81.5156 52.5C79.8906 51.9688 78.6042 51.4479 77.6562 50.9375C75.0729 49.5417 73.7812 47.6615 73.7812 45.2969C73.7812 44.0677 74.125 42.974 74.8125 42.0156C75.5104 41.0469 76.5052 40.2917 77.7969 39.75C79.099 39.2083 80.5573 38.9375 82.1719 38.9375C83.7969 38.9375 85.2448 39.2344 86.5156 39.8281C87.7865 40.4115 88.7708 41.2396 89.4688 42.3125C90.1771 43.3854 90.5312 44.6042 90.5312 45.9688H85.8438C85.8438 44.9271 85.5156 44.1198 84.8594 43.5469C84.2031 42.9635 83.2812 42.6719 82.0938 42.6719C80.9479 42.6719 80.0573 42.9167 79.4219 43.4062C78.7865 43.8854 78.4688 44.5208 78.4688 45.3125C78.4688 46.0521 78.8385 46.6719 79.5781 47.1719C80.3281 47.6719 81.4271 48.1406 82.875 48.5781C85.5417 49.3802 87.4844 50.375 88.7031 51.5625C89.9219 52.75 90.5312 54.2292 90.5312 56C90.5312 57.9688 89.7865 59.5156 88.2969 60.6406C86.8073 61.7552 84.8021 62.3125 82.2812 62.3125C80.5312 62.3125 78.9375 61.9948 77.5 61.3594C76.0625 60.7135 74.9635 59.8333 74.2031 58.7188C73.4531 57.6042 73.0781 56.3125 73.0781 54.8438H77.7812C77.7812 57.3542 79.2812 58.6094 82.2812 58.6094C83.3958 58.6094 84.2656 58.3854 84.8906 57.9375C85.5156 57.4792 85.8281 56.8438 85.8281 56.0312ZM100.844 52.875L98.4062 55.5V62H93.7188V39.25H98.4062V49.5625L100.469 46.7344L106.266 39.25H112.031L103.953 49.3594L112.266 62H106.688L100.844 52.875ZM119.016 62H114.328V39.25H119.016V62ZM128.062 58.2344H138.016V62H123.375V39.25H128.062V58.2344ZM145.406 58.2344H155.359V62H140.719V39.25H145.406V58.2344ZM169.859 56.0312C169.859 55.1458 169.547 54.4688 168.922 54C168.297 53.5208 167.172 53.0208 165.547 52.5C163.922 51.9688 162.635 51.4479 161.688 50.9375C159.104 49.5417 157.812 47.6615 157.812 45.2969C157.812 44.0677 158.156 42.974 158.844 42.0156C159.542 41.0469 160.536 40.2917 161.828 39.75C163.13 39.2083 164.589 38.9375 166.203 38.9375C167.828 38.9375 169.276 39.2344 170.547 39.8281C171.818 40.4115 172.802 41.2396 173.5 42.3125C174.208 43.3854 174.562 44.6042 174.562 45.9688H169.875C169.875 44.9271 169.547 44.1198 168.891 43.5469C168.234 42.9635 167.312 42.6719 166.125 42.6719C164.979 42.6719 164.089 42.9167 163.453 43.4062C162.818 43.8854 162.5 44.5208 162.5 45.3125C162.5 46.0521 162.87 46.6719 163.609 47.1719C164.359 47.6719 165.458 48.1406 166.906 48.5781C169.573 49.3802 171.516 50.375 172.734 51.5625C173.953 52.75 174.562 54.2292 174.562 56C174.562 57.9688 173.818 59.5156 172.328 60.6406C170.839 61.7552 168.833 62.3125 166.312 62.3125C164.562 62.3125 162.969 61.9948 161.531 61.3594C160.094 60.7135 158.995 59.8333 158.234 58.7188C157.484 57.6042 157.109 56.3125 157.109 54.8438H161.812C161.812 57.3542 163.312 58.6094 166.312 58.6094C167.427 58.6094 168.297 58.3854 168.922 57.9375C169.547 57.4792 169.859 56.8438 169.859 56.0312Z" fill="#8338EC"/>
</g>
</g>
<defs>
<filter id="filter0_dd" x="0" y="0" width="248" height="103" filterUnits="userSpaceOnUse" color-interpolation-filters="sRGB">
<feFlood flood-opacity="0" result="BackgroundImageFix"/>
<feColorMatrix in="SourceAlpha" type="matrix" values="0 0 0 0 0 0 0 0 0 0 0 0 0 0 0 0 0 0 127 0"/>
<feOffset dx="4" dy="4"/>
<feGaussianBlur stdDeviation="6"/>
<feColorMatrix type="matrix" values="0 0 0 0 0 0 0 0 0 0 0 0 0 0 0 0 0 0 0.96 0"/>
<feBlend mode="normal" in2="BackgroundImageFix" result="effect1_dropShadow"/>
<feColorMatrix in="SourceAlpha" type="matrix" values="0 0 0 0 0 0 0 0 0 0 0 0 0 0 0 0 0 0 127 0"/>
<feOffset dx="-4" dy="-4"/>
<feGaussianBlur stdDeviation="6"/>
<feColorMatrix type="matrix" values="0 0 0 0 1 0 0 0 0 1 0 0 0 0 1 0 0 0 0.06 0"/>
<feBlend mode="normal" in2="effect1_dropShadow" result="effect2_dropShadow"/>
<feBlend mode="normal" in="SourceGraphic" in2="effect2_dropShadow" result="shape"/>
</filter>
<filter id="filter1_i" x="73.0781" y="38.9375" width="105.484" height="27.375" filterUnits="userSpaceOnUse" color-interpolation-filters="sRGB">
<feFlood flood-opacity="0" result="BackgroundImageFix"/>
<feBlend mode="normal" in="SourceGraphic" in2="BackgroundImageFix" result="shape"/>
<feColorMatrix in="SourceAlpha" type="matrix" values="0 0 0 0 0 0 0 0 0 0 0 0 0 0 0 0 0 0 127 0" result="hardAlpha"/>
<feOffset dx="4" dy="4"/>
<feGaussianBlur stdDeviation="6"/>
<feComposite in2="hardAlpha" operator="arithmetic" k2="-1" k3="1"/>
<feColorMatrix type="matrix" values="0 0 0 0 0 0 0 0 0 0 0 0 0 0 0 0 0 0 1 0"/>
<feBlend mode="normal" in2="shape" result="effect1_innerShadow"/>
</filter>
</defs>
</svg>
