<svg width="1123" height="1036" viewBox="0 0 1123 1036" fill="none" xmlns="http://www.w3.org/2000/svg">
<path d="M720.074 2.49173C857.486 -14.087 1015.99 53.1748 1088.34 171.131C1151.42 273.954 1115.45 403.466 1082.15 523.368C1077.64 539.579 1073.19 555.614 1069.04 571.384C1043.51 668.297 995.733 760.264 916.883 822.148C876.814 853.595 826.598 857.601 775.452 861.681C743.497 864.229 711.18 866.807 680.747 876.125C649.896 885.571 621.522 899.082 593.27 912.536C558.822 928.94 524.555 945.257 486.2 954.013C448.863 962.536 410.372 976.589 371.795 990.674C274.554 1026.18 176.768 1061.88 95.5399 1009.72C-11.0121 941.303 -9.72107 773.832 11.1091 648.956C28.7998 542.901 110.905 464.341 189.063 389.557C193.013 385.778 196.953 382.008 200.874 378.244C236.645 343.913 280.615 324.35 324.959 304.621C359.537 289.236 394.342 273.751 425.664 251.083C465.861 221.992 499.007 181.761 531.705 142.075C585.771 76.4536 638.611 12.3203 720.074 2.49173Z" fill="#FF4D9C"/>
<path d="M720.074 2.49173C857.486 -14.087 1015.99 53.1748 1088.34 171.131C1151.42 273.954 1115.45 403.466 1082.15 523.368C1077.64 539.579 1073.19 555.614 1069.04 571.384C1043.51 668.297 995.733 760.264 916.883 822.148C876.814 853.595 826.598 857.601 775.452 861.681C743.497 864.229 711.18 866.807 680.747 876.125C649.896 885.571 621.522 899.082 593.27 912.536C558.822 928.94 524.555 945.257 486.2 954.013C448.863 962.536 410.372 976.589 371.795 990.674C274.554 1026.18 176.768 1061.88 95.5399 1009.72C-11.0121 941.303 -9.72107 773.832 11.1091 648.956C28.7998 542.901 110.905 464.341 189.063 389.557C193.013 385.778 196.953 382.008 200.874 378.244C236.645 343.913 280.615 324.35 324.959 304.621C359.537 289.236 394.342 273.751 425.664 251.083C465.861 221.992 499.007 181.761 531.705 142.075C585.771 76.4536 638.611 12.3203 720.074 2.49173Z" stroke="black"/>
</svg>
