<svg width="158" height="25" viewBox="0 0 158 25" fill="none" xmlns="http://www.w3.org/2000/svg">
<g id="PROJEKTY" filter="url(#filter0_i)">
<path d="M4.71875 15.9844V24H0.03125V1.25H8.90625C10.6146 1.25 12.1146 1.5625 13.4062 2.1875C14.7083 2.8125 15.7083 3.70312 16.4062 4.85938C17.1042 6.00521 17.4531 7.3125 17.4531 8.78125C17.4531 11.0104 16.6875 12.7708 15.1562 14.0625C13.6354 15.3438 11.526 15.9844 8.82812 15.9844H4.71875ZM4.71875 12.1875H8.90625C10.1458 12.1875 11.0885 11.8958 11.7344 11.3125C12.3906 10.7292 12.7188 9.89583 12.7188 8.8125C12.7188 7.69792 12.3906 6.79688 11.7344 6.10938C11.0781 5.42188 10.1719 5.06771 9.01562 5.04688H4.71875V12.1875ZM29.1094 15.6719H25.375V24H20.6875V1.25H29.1406C31.8281 1.25 33.901 1.84896 35.3594 3.04688C36.8177 4.24479 37.5469 5.9375 37.5469 8.125C37.5469 9.67708 37.2083 10.974 36.5312 12.0156C35.8646 13.0469 34.849 13.8698 33.4844 14.4844L38.4062 23.7812V24H33.375L29.1094 15.6719ZM25.375 11.875H29.1562C30.3333 11.875 31.2448 11.5781 31.8906 10.9844C32.5365 10.3802 32.8594 9.55208 32.8594 8.5C32.8594 7.42708 32.5521 6.58333 31.9375 5.96875C31.3333 5.35417 30.401 5.04688 29.1406 5.04688H25.375V11.875ZM59.8125 13.1406C59.8125 15.3802 59.4167 17.3438 58.625 19.0312C57.8333 20.7188 56.6979 22.0208 55.2188 22.9375C53.75 23.8542 52.0625 24.3125 50.1562 24.3125C48.2708 24.3125 46.5885 23.8594 45.1094 22.9531C43.6302 22.0469 42.4844 20.7552 41.6719 19.0781C40.8594 17.3906 40.4479 15.4531 40.4375 13.2656V12.1406C40.4375 9.90104 40.8385 7.93229 41.6406 6.23438C42.4531 4.52604 43.5938 3.21875 45.0625 2.3125C46.5417 1.39583 48.2292 0.9375 50.125 0.9375C52.0208 0.9375 53.7031 1.39583 55.1719 2.3125C56.651 3.21875 57.7917 4.52604 58.5938 6.23438C59.4062 7.93229 59.8125 9.89583 59.8125 12.125V13.1406ZM55.0625 12.1094C55.0625 9.72396 54.6354 7.91146 53.7812 6.67188C52.9271 5.43229 51.7083 4.8125 50.125 4.8125C48.5521 4.8125 47.3385 5.42708 46.4844 6.65625C45.6302 7.875 45.1979 9.66667 45.1875 12.0312V13.1406C45.1875 15.4635 45.6146 17.2656 46.4688 18.5469C47.3229 19.8281 48.5521 20.4688 50.1562 20.4688C51.7292 20.4688 52.9375 19.8542 53.7812 18.625C54.625 17.3854 55.0521 15.5833 55.0625 13.2188V12.1094ZM72.3906 1.25H77.0781V17C77.0781 18.4479 76.7552 19.7292 76.1094 20.8438C75.474 21.9479 74.5729 22.8021 73.4062 23.4062C72.2396 24.0104 70.9219 24.3125 69.4531 24.3125C67.0469 24.3125 65.1719 23.7031 63.8281 22.4844C62.4844 21.2552 61.8125 19.5208 61.8125 17.2812H66.5312C66.5312 18.3958 66.7656 19.2188 67.2344 19.75C67.7031 20.2812 68.4427 20.5469 69.4531 20.5469C70.349 20.5469 71.0625 20.2396 71.5938 19.625C72.125 19.0104 72.3906 18.1354 72.3906 17V1.25ZM94.7812 14.1406H85.7812V20.2344H96.3438V24H81.0938V1.25H96.3125V5.04688H85.7812V10.4688H94.7812V14.1406ZM106.219 14.875L103.781 17.5V24H99.0938V1.25H103.781V11.5625L105.844 8.73438L111.641 1.25H117.406L109.328 11.3594L117.641 24H112.062L106.219 14.875ZM136.531 5.04688H129.562V24H124.875V5.04688H118V1.25H136.531V5.04688ZM147.312 11.5L152.047 1.25H157.172L149.703 15.75V24H144.938V15.75L137.469 1.25H142.609L147.312 11.5Z" fill="#62B3FF"/>
</g>
<defs>
<filter id="filter0_i" x="-0.96875" y="0.9375" width="158.141" height="23.375" filterUnits="userSpaceOnUse" color-interpolation-filters="sRGB">
<feFlood flood-opacity="0" result="BackgroundImageFix"/>
<feBlend mode="normal" in="SourceGraphic" in2="BackgroundImageFix" result="shape"/>
<feColorMatrix in="SourceAlpha" type="matrix" values="0 0 0 0 0 0 0 0 0 0 0 0 0 0 0 0 0 0 127 0" result="hardAlpha"/>
<feOffset dx="-1"/>
<feGaussianBlur stdDeviation="1.5"/>
<feComposite in2="hardAlpha" operator="arithmetic" k2="-1" k3="1"/>
<feColorMatrix type="matrix" values="0 0 0 0 0 0 0 0 0 0 0 0 0 0 0 0 0 0 1 0"/>
<feBlend mode="normal" in2="shape" result="effect1_innerShadow"/>
</filter>
</defs>
</svg>
