<svg width="250" height="236" viewBox="0 0 250 236" fill="none" xmlns="http://www.w3.org/2000/svg">
<g id="undraw_feeling_proud_qne1 1" clip-path="url(#clip0)">
<g id="desk">
<path id="Vector" d="M181.501 133.921V199.114L192.379 216.886L193.207 218.237H236.127L236.994 133.921H181.501Z" fill="#E6E6E6"/>
<path id="Vector_2" opacity="0.1" d="M181.501 133.921V199.114L192.379 216.886L193.046 133.921H181.501Z" fill="black"/>
<path id="Vector_3" d="M77.8858 132.182V197.375L67.0082 215.147L66.1804 216.499H23.2603L22.3931 132.182H77.8858Z" fill="#E6E6E6"/>
<path id="Vector_4" opacity="0.1" d="M77.8858 132.182V197.375L67.0082 215.147L66.3407 132.182H77.8858Z" fill="black"/>
<path id="Vector_5" d="M250 130.878V134.79H16.7572V129.139L38.434 117.839H230.925L250 130.878Z" fill="#E6E6E6"/>
<path id="Vector_6" opacity="0.1" d="M250 130.878V134.79H16.7572V129.139L250 130.878Z" fill="black"/>
<path id="Vector_7" d="M50.1398 150.436H39.7346L35.3993 147.394H54.9086L50.1398 150.436Z" fill="#3F3D56"/>
<path id="Vector_8" d="M50.1398 163.04H39.7346L35.3993 159.998H54.9086L50.1398 163.04Z" fill="#3F3D56"/>
<path id="Vector_9" d="M50.1398 180.86H39.7346L35.3993 177.817H54.9086L50.1398 180.86Z" fill="#3F3D56"/>
<path id="Vector_10" d="M50.1398 198.679H39.7346L35.3993 195.637H54.9086L50.1398 198.679Z" fill="#3F3D56"/>
<path id="Vector_11" d="M209.248 152.174H219.653L223.988 149.132H204.479L209.248 152.174Z" fill="#3F3D56"/>
<path id="Vector_12" d="M209.248 164.779H219.653L223.988 161.736H204.479L209.248 164.779Z" fill="#3F3D56"/>
<path id="Vector_13" d="M209.248 182.598H219.653L223.988 179.556H204.479L209.248 182.598Z" fill="#3F3D56"/>
<path id="Vector_14" d="M209.248 200.418H219.653L223.988 197.375H204.479L209.248 200.418Z" fill="#3F3D56"/>
</g>
<g id="monitor">
<path id="Vector_15" d="M216.333 42.4495H128.738C128.303 42.4494 127.873 42.5353 127.471 42.7021C127.069 42.869 126.703 43.1136 126.396 43.422C126.088 43.7304 125.844 44.0966 125.678 44.4995C125.511 44.9025 125.426 45.3344 125.426 45.7705V104.925C125.426 105.361 125.511 105.793 125.678 106.195C125.844 106.598 126.088 106.965 126.396 107.273C126.703 107.581 127.069 107.826 127.471 107.993C127.873 108.16 128.303 108.246 128.738 108.246H161.99L160.744 116.219C160.744 116.219 153.625 120.011 158.631 120.122C163.637 120.234 187.219 120.122 187.219 120.122C187.219 120.122 191.78 120.122 184.55 116.108L183.378 108.246H216.333C216.768 108.246 217.199 108.16 217.601 107.993C218.003 107.826 218.368 107.581 218.676 107.273C218.983 106.965 219.227 106.598 219.394 106.195C219.56 105.793 219.646 105.361 219.646 104.925V45.7705C219.646 45.3344 219.56 44.9025 219.394 44.4995C219.227 44.0966 218.983 43.7304 218.676 43.422C218.368 43.1136 218.003 42.869 217.601 42.7021C217.199 42.5353 216.768 42.4494 216.333 42.4495Z" fill="#3F3D56"/>
<path id="screen" d="M216.475 45.9623H128.596V95.2536H216.475V45.9623Z" fill="#F2F2F2"/>
<path id="Vector_17" d="M172.536 44.9587C172.843 44.9587 173.092 44.709 173.092 44.4011C173.092 44.0931 172.843 43.8435 172.536 43.8435C172.229 43.8435 171.979 44.0931 171.979 44.4011C171.979 44.709 172.229 44.9587 172.536 44.9587Z" fill="#F2F2F2"/>
<path id="dot" d="M172.536 105.848C173.703 105.848 174.649 104.899 174.649 103.729C174.649 102.559 173.703 101.61 172.536 101.61C171.368 101.61 170.422 102.559 170.422 103.729C170.422 104.899 171.368 105.848 172.536 105.848Z" fill="#8338EC"/>
<g id="pcText">
<path id="Rectangle 55" d="M164.218 62.1512H153.759V64.6754H164.218V62.1512Z" fill="#003566"/>
<path id="Rectangle 56" d="M200.436 62.1512H196.756V64.6754H200.436V62.1512Z" fill="#003566"/>
<path id="Rectangle 57" d="M207.796 62.1512H204.116V64.6754H207.796V62.1512Z" fill="#003566"/>
<path id="Rectangle 58" d="M192.882 62.1512H167.898V64.6754H192.882V62.1512Z" fill="#003566"/>
<path id="Rectangle 59" d="M151.048 78.4611H140.589V80.9852H151.048V78.4611Z" fill="#003566"/>
<path id="Rectangle 60" d="M187.266 78.4611H183.586V80.9852H187.266V78.4611Z" fill="#003566"/>
<path id="Rectangle 61" d="M194.626 78.4611H190.946V80.9852H194.626V78.4611Z" fill="#003566"/>
<path id="Rectangle 62" d="M179.712 78.4611H154.728V80.9852H179.712V78.4611Z" fill="#003566"/>
<path id="Rectangle 63" d="M194.238 67.782H183.78V70.3061H194.238V67.782Z" fill="#003566"/>
<path id="Rectangle 64" d="M208.377 67.782H197.918V70.3061H208.377V67.782Z" fill="#003566"/>
<path id="Rectangle 66" d="M144.269 67.782H140.589V70.3061H144.269V67.782Z" fill="#003566"/>
<path id="Rectangle 67" d="M151.629 67.782H147.949V70.3061H151.629V67.782Z" fill="#003566"/>
<path id="Rectangle 68" d="M180.293 67.782H155.309V70.3061H180.293V67.782Z" fill="#003566"/>
<path id="Rectangle 69" d="M172.546 73.2186H162.087V75.7428H172.546V73.2186Z" fill="#003566"/>
<path id="Rectangle 70" d="M158.408 73.2186H147.949V75.7428H158.408V73.2186Z" fill="#003566"/>
<path id="Rectangle 71" d="M144.269 73.2186H140.589V75.7428H144.269V73.2186Z" fill="#003566"/>
<path id="Rectangle 73" d="M208.377 73.2186H204.697V75.7428H208.377V73.2186Z" fill="#003566"/>
<path id="Rectangle 74" d="M201.017 73.2186H176.032V75.7428H201.017V73.2186Z" fill="#003566"/>
</g>
</g>
<g id="mouse">
<path id="Vector_18" opacity="0.1" d="M192.273 125.053C188.189 126.622 184.548 126.739 180.811 124.137C179.398 123.09 177.687 122.525 175.93 122.526C177.333 121.781 181.985 119.945 190.234 122.603C190.841 122.794 191.384 123.151 191.801 123.633C191.986 123.816 192.126 124.039 192.208 124.286C192.29 124.533 192.312 124.795 192.273 125.053Z" fill="black"/>
<path id="Vector_19" d="M187.152 124.137C187.95 124.137 188.598 123.937 188.598 123.691C188.598 123.445 187.95 123.245 187.152 123.245C186.353 123.245 185.706 123.445 185.706 123.691C185.706 123.937 186.353 124.137 187.152 124.137Z" fill="#F2F2F2"/>
<path id="Vector_20" d="M192.273 125.053C192.164 125.52 191.753 126.013 190.823 126.479C187.485 128.152 180.7 126.033 180.7 126.033C180.7 126.033 175.471 125.141 175.471 122.799C175.618 122.698 175.771 122.607 175.93 122.526C177.333 121.781 181.985 119.945 190.233 122.603C190.841 122.794 191.384 123.151 191.801 123.633C191.986 123.816 192.126 124.039 192.208 124.286C192.29 124.533 192.312 124.795 192.273 125.053Z" fill="#3F3D56"/>
</g>
<g id="keyboard">
<path id="Vector_21" d="M169.242 126.144V127.26H109.395V126.367L109.477 126.144L110.952 122.13H168.019L169.242 126.144Z" fill="#3F3D56"/>
<path id="Vector_22" opacity="0.1" d="M169.242 126.144V127.26H109.395V126.367L109.477 126.144H169.242Z" fill="black"/>
</g>
<g id="human">
<path id="Vector_23" d="M33.2758 0.000101597C32.6684 -0.0498921 32.0602 0.0863144 31.5318 0.390673C31.013 0.746884 30.686 1.37093 30.3521 1.95164C29.0759 4.19845 27.3481 6.15504 25.2781 7.69749C23.7705 8.80475 21.8537 10.1854 22.1117 12.2269C22.2477 12.901 22.4962 13.5474 22.8465 14.1388C24.2374 16.9535 28.0328 19.1286 27.6595 22.3404C29.0413 20.0213 27.193 18.8745 28.5748 16.5554C29.2329 15.4509 30.3761 14.2042 31.3696 14.8978C31.7023 15.13 31.9208 15.5466 32.2671 15.7503C33.0936 16.2366 33.9729 15.307 34.7046 14.6486C37.2274 12.3782 40.8151 12.973 43.9545 13.6804C45.4366 14.0144 47.0646 14.4525 47.9407 15.8726C49.0927 17.7397 46.8463 19.7562 46.2787 21.8672C46.2323 22.0471 46.2302 22.2355 46.2723 22.4164C46.3144 22.5973 46.3997 22.7653 46.5207 22.906C46.6417 23.0467 46.7949 23.1559 46.9672 23.2243C47.1395 23.2927 47.3258 23.3182 47.51 23.2987C48.452 23.2056 49.5679 23.1292 49.6237 22.7148C50.8089 22.7571 52.2611 22.6225 52.7689 21.3854C52.9241 20.8958 53.0061 20.386 53.0123 19.8724C53.1987 17.7942 54.0785 15.8983 54.6614 13.9203C55.2442 11.9423 55.4977 9.6243 54.5141 7.87062C54.163 7.28714 53.7289 6.75817 53.2254 6.30045C47.6435 0.88512 40.3046 -0.00793678 33.2758 0.000101597Z" fill="#2F2E41"/>
<path id="Vector_24" d="M28.8734 26.397C28.8734 26.397 30.0874 36.5387 25.6362 37.35C21.185 38.1614 29.6827 51.9541 29.6827 51.9541L49.9153 54.388L45.0595 38.1614C45.0595 38.1614 41.8223 36.9444 43.8456 28.831C45.8688 20.7177 28.8734 26.397 28.8734 26.397Z" fill="#FFB8B8"/>
<path id="Vector_25" d="M16.5315 200.631L18.1503 222.943H26.6477L24.22 200.631H16.5315Z" fill="#FFB8B8"/>
<path id="Vector_26" d="M78.848 158.442L80.0618 177.102L89.3691 173.046L85.727 157.63L78.848 158.442Z" fill="#FFB8B8"/>
<path id="Vector_27" d="M10.4617 115.441C10.4617 115.441 10.8663 138.97 13.2942 146.677C15.7222 154.385 15.3175 154.791 14.9129 156.008C14.5082 157.225 14.1036 156.413 14.1036 158.442C14.1036 160.47 13.2943 192.518 14.1036 195.357C14.9129 198.197 11.6756 203.065 14.1036 203.471C16.5315 203.876 27.8617 203.471 28.2664 201.037C28.6711 198.603 25.0292 197.791 26.6478 196.169C28.2664 194.546 30.6943 161.281 30.6943 161.281L36.3595 138.158L46.8804 125.988H69.1363L76.0154 152.762C76.0154 152.762 73.1828 160.47 75.2061 160.47C77.2294 160.47 89.3689 162.904 89.3689 153.979C89.3689 145.055 85.3224 118.686 84.5131 117.875C83.7038 117.064 84.9178 114.224 83.7038 113.007C82.4898 111.79 68.327 103.271 63.0665 101.648C57.806 100.026 50.4265 98.0942 50.4265 98.0942L10.4617 115.441Z" fill="#2F2E41"/>
<path id="shoe" d="M89.3689 169.8C89.3689 169.8 83.2991 167.772 80.4666 173.857C77.634 179.942 78.848 181.565 78.848 181.565C78.848 181.565 88.155 184.81 89.7736 183.187C90.4778 182.481 92.714 182.236 95.0158 182.184C98.5215 182.105 99.4542 177.133 96.1433 175.975C96.0445 175.941 95.9445 175.911 95.8433 175.885C92.6061 175.074 89.3689 169.8 89.3689 169.8Z" fill="#2F2E41"/>
<path id="Vector_28" d="M37.9781 33.0905C44.6826 33.0905 50.1177 27.6418 50.1177 20.9205C50.1177 14.1992 44.6826 8.75049 37.9781 8.75049C31.2736 8.75049 25.8385 14.1992 25.8385 20.9205C25.8385 27.6418 31.2736 33.0905 37.9781 33.0905Z" fill="#FFB8B8"/>
<path id="Vector_29" d="M22.1966 42.4209C22.1966 42.4209 42.0246 46.4776 46.8805 39.9869C51.7363 33.4962 53.7595 58.2419 53.7595 58.2419L56.1875 84.2046L52.5456 98.403C52.5456 98.403 33.5269 113.818 27.4571 115.035C21.3873 116.252 12.0803 117.064 12.0803 117.064C12.0803 117.064 14.9129 72.0346 14.9129 71.2233C14.9129 70.4119 22.1966 42.4209 22.1966 42.4209Z" fill="#003566"/>
<path id="Vector_30" d="M28.2268 34.8127C28.2268 34.8127 23.8153 32.2792 22.6013 34.7132C21.3874 37.1472 10.0571 43.2322 8.84315 43.2322C7.62919 43.2322 11.2711 76.9025 9.65245 80.9592C8.03384 85.0159 0.345446 114.63 4.79662 117.064C9.2478 119.498 6.01058 114.63 10.4618 120.715C14.9129 126.8 36.7642 126.8 37.9781 124.366C39.1921 121.932 28.2665 103.677 30.2897 86.6386C32.313 69.6006 35.5502 46.0719 32.7177 42.8265C29.8851 39.5812 28.2268 34.8127 28.2268 34.8127Z" fill="#2F2E41"/>
<path id="Vector_31" d="M42.8339 37.5528L43.3975 35.6083C43.3975 35.6083 60.2339 41.2039 61.0432 44.8549C61.8525 48.5059 61.4479 74.0629 58.6153 76.0912C55.7827 78.1196 51.7362 81.3649 54.5688 86.2329C57.4014 91.1009 60.6386 96.3746 63.0665 96.7802C65.4944 97.1859 69.9456 100.026 68.7316 102.865C67.5177 105.705 52.9502 100.431 52.9502 100.431C52.9502 100.431 43.2385 93.1292 43.6432 81.7705C44.0478 70.4119 42.8339 37.5528 42.8339 37.5528Z" fill="#2F2E41"/>
<path id="Vector_32" d="M56.9968 85.4216L47.2852 103.677C47.2852 103.677 33.1223 118.281 41.2154 119.903C49.3085 121.526 53.7596 106.516 53.7596 106.516L64.2806 91.5067L56.9968 85.4216Z" fill="#FFB8B8"/>
<path id="Vector_33" d="M33.8671 3.18431C33.3778 3.14796 32.8877 3.24326 32.4474 3.46036C32.0494 3.75183 31.7213 4.12877 31.4871 4.56365C30.4078 6.19125 29.0009 7.57457 27.3567 8.62477C26.1294 9.40738 24.5691 10.3832 24.779 11.8261C24.893 12.3099 25.0959 12.7681 25.3773 13.1775C26.5134 15.187 26.9657 17.5128 26.6657 19.8029L30.0403 14.8855C30.576 14.1049 31.5066 13.2237 32.3154 13.7139C32.5862 13.8781 32.7641 14.1725 33.046 14.3165C33.7188 14.6601 34.4346 14.0031 35.0302 13.5378C37.0839 11.9331 40.0044 12.3535 42.5601 12.8534C43.7666 13.0895 45.0918 13.3992 45.805 14.4029C46.9902 16.0709 45.7526 18.481 46.4443 20.4079C46.638 20.272 46.8024 20.0985 46.9279 19.8977C47.0534 19.6969 47.1374 19.4729 47.175 19.2389C48.1398 19.2688 49.3219 19.1737 49.7353 18.2992C49.861 17.9566 49.928 17.595 49.9335 17.2299C50.0852 15.7611 50.8014 14.421 51.2759 13.023C51.7504 11.625 51.9567 9.98662 51.156 8.74713C50.863 8.32716 50.5095 7.95315 50.1069 7.63734C45.563 3.80983 39.5888 3.17863 33.8671 3.18431Z" fill="#2F2E41"/>
<path id="Vector_34" d="M56.9967 43.2322L60.7669 44.2354C60.7669 44.2354 69.541 66.7608 67.5177 82.1762C65.4945 97.5916 64.2805 94.3462 64.2805 94.3462C64.2805 94.3462 61.0433 87.0442 53.7595 88.6669L56.9967 43.2322Z" fill="#2F2E41"/>
<path id="Vector_35" d="M17.0921 219.994C16.1163 221.323 16.3119 223.224 15.4475 224.628C14.6983 225.846 13.2862 226.484 12.3491 227.563C12.05 227.922 11.7834 228.306 11.5525 228.712C10.6831 230.172 9.97647 232.043 10.8327 233.511C11.5214 234.691 12.9692 235.153 14.2969 235.467C15.9751 235.865 17.7188 236.183 19.4164 235.879C21.114 235.575 22.773 234.533 23.3783 232.915C23.4973 232.508 23.6387 232.107 23.8019 231.716C24.722 229.9 27.6081 229.881 28.5497 228.076C29.2087 226.813 28.6029 225.286 27.9974 223.996L26.148 220.058C25.5343 218.75 23.0463 219.502 21.7492 219.189C20.0576 218.78 18.309 218.33 17.0921 219.994Z" fill="#2F2E41"/>
<path id="Vector_36" d="M3.58264 93.535L20.5781 119.903C20.5781 119.903 31.099 133.29 34.3362 127.205C37.5735 121.12 23.006 110.979 23.006 110.979L12.0803 90.6953L3.58264 93.535Z" fill="#FFB8B8"/>
<path id="Vector_37" d="M12.0803 44.0435L8.84311 43.2322C8.84311 43.2322 2.36867 45.2605 0.750057 53.7795C-0.868552 62.2985 0.345402 96.3746 2.36866 96.7802C4.39193 97.1859 12.3615 90.8469 13.6372 92.1909C14.9129 93.5349 10.8664 86.6386 12.0803 82.9875C13.2943 79.3365 12.0803 44.0435 12.0803 44.0435Z" fill="#2F2E41"/>
</g>
</g>
<defs>
<clipPath id="clip0">
<rect width="250" height="236" fill="white"/>
</clipPath>
</defs>
</svg>
