<svg width="158" height="24" viewBox="0 0 158 24" fill="none" xmlns="http://www.w3.org/2000/svg">
<g filter="url(#filter0_i)">
<path d="M5.35657 15.5238V23.5394H0.669067V0.789429H9.54407C11.2524 0.789429 12.7524 1.10193 14.0441 1.72693C15.3462 2.35193 16.3462 3.24255 17.0441 4.3988C17.742 5.54464 18.0909 6.85193 18.0909 8.32068C18.0909 10.5498 17.3253 12.3103 15.7941 13.6019C14.2732 14.8832 12.1639 15.5238 9.46594 15.5238H5.35657ZM5.35657 11.7269H9.54407C10.7837 11.7269 11.7264 11.4353 12.3722 10.8519C13.0284 10.2686 13.3566 9.43526 13.3566 8.35193C13.3566 7.23735 13.0284 6.3363 12.3722 5.6488C11.7159 4.9613 10.8097 4.60714 9.65344 4.5863H5.35657V11.7269ZM29.7472 15.2113H26.0128V23.5394H21.3253V0.789429H29.7784C32.4659 0.789429 34.5389 1.38839 35.9972 2.5863C37.4555 3.78422 38.1847 5.47693 38.1847 7.66443C38.1847 9.21651 37.8462 10.5134 37.1691 11.5551C36.5024 12.5863 35.4868 13.4092 34.1222 14.0238L39.0441 23.3207V23.5394H34.0128L29.7472 15.2113ZM26.0128 11.4144H29.7941C30.9712 11.4144 31.8826 11.1176 32.5284 10.5238C33.1743 9.91964 33.4972 9.09151 33.4972 8.03943C33.4972 6.96651 33.1899 6.12276 32.5753 5.50818C31.9712 4.8936 31.0389 4.5863 29.7784 4.5863H26.0128V11.4144ZM60.4503 12.6801C60.4503 14.9196 60.0545 16.8832 59.2628 18.5707C58.4712 20.2582 57.3357 21.5603 55.8566 22.4769C54.3878 23.3936 52.7003 23.8519 50.7941 23.8519C48.9087 23.8519 47.2264 23.3988 45.7472 22.4926C44.268 21.5863 43.1222 20.2946 42.3097 18.6176C41.4972 16.9301 41.0857 14.9926 41.0753 12.8051V11.6801C41.0753 9.44047 41.4764 7.47172 42.2784 5.7738C43.0909 4.06547 44.2316 2.75818 45.7003 1.85193C47.1795 0.935262 48.867 0.476929 50.7628 0.476929C52.6587 0.476929 54.3409 0.935262 55.8097 1.85193C57.2889 2.75818 58.4295 4.06547 59.2316 5.7738C60.0441 7.47172 60.4503 9.43526 60.4503 11.6644V12.6801ZM55.7003 11.6488C55.7003 9.26339 55.2732 7.45089 54.4191 6.2113C53.5649 4.97172 52.3462 4.35193 50.7628 4.35193C49.1899 4.35193 47.9764 4.96651 47.1222 6.19568C46.268 7.41443 45.8357 9.2061 45.8253 11.5707V12.6801C45.8253 15.003 46.2524 16.8051 47.1066 18.0863C47.9607 19.3676 49.1899 20.0082 50.7941 20.0082C52.367 20.0082 53.5753 19.3936 54.4191 18.1644C55.2628 16.9248 55.6899 15.1228 55.7003 12.7582V11.6488ZM73.0284 0.789429H77.7159V16.5394C77.7159 17.9873 77.393 19.2686 76.7472 20.3832C76.1118 21.4873 75.2107 22.3415 74.0441 22.9457C72.8774 23.5498 71.5597 23.8519 70.0909 23.8519C67.6847 23.8519 65.8097 23.2426 64.4659 22.0238C63.1222 20.7946 62.4503 19.0603 62.4503 16.8207H67.1691C67.1691 17.9353 67.4034 18.7582 67.8722 19.2894C68.3409 19.8207 69.0805 20.0863 70.0909 20.0863C70.9868 20.0863 71.7003 19.779 72.2316 19.1644C72.7628 18.5498 73.0284 17.6748 73.0284 16.5394V0.789429ZM95.4191 13.6801H86.4191V19.7738H96.9816V23.5394H81.7316V0.789429H96.9503V4.5863H86.4191V10.0082H95.4191V13.6801ZM106.857 14.4144L104.419 17.0394V23.5394H99.7316V0.789429H104.419V11.1019L106.482 8.2738L112.278 0.789429H118.044L109.966 10.8988L118.278 23.5394H112.7L106.857 14.4144ZM137.169 4.5863H130.2V23.5394H125.513V4.5863H118.638V0.789429H137.169V4.5863ZM147.95 11.0394L152.685 0.789429H157.81L150.341 15.2894V23.5394H145.575V15.2894L138.107 0.789429H143.247L147.95 11.0394Z" fill="#003566"/>
</g>
<defs>
<filter id="filter0_i" x="0.669067" y="0.476929" width="161.141" height="27.375" filterUnits="userSpaceOnUse" color-interpolation-filters="sRGB">
<feFlood flood-opacity="0" result="BackgroundImageFix"/>
<feBlend mode="normal" in="SourceGraphic" in2="BackgroundImageFix" result="shape"/>
<feColorMatrix in="SourceAlpha" type="matrix" values="0 0 0 0 0 0 0 0 0 0 0 0 0 0 0 0 0 0 127 0" result="hardAlpha"/>
<feOffset dx="4" dy="4"/>
<feGaussianBlur stdDeviation="6"/>
<feComposite in2="hardAlpha" operator="arithmetic" k2="-1" k3="1"/>
<feColorMatrix type="matrix" values="0 0 0 0 0 0 0 0 0 0 0 0 0 0 0 0 0 0 1 0"/>
<feBlend mode="normal" in2="shape" result="effect1_innerShadow"/>
</filter>
</defs>
</svg>
