<svg width="92" height="25" viewBox="0 0 92 25" fill="none" xmlns="http://www.w3.org/2000/svg">
<g id="WORK" filter="url(#filter0_i)">
<path d="M19.75 17.4375L22.8125 1.25H27.4844L22.4375 24H17.7188L14.0156 8.78125L10.3125 24H5.59375L0.546875 1.25H5.21875L8.29688 17.4062L12.0469 1.25H16.0156L19.75 17.4375ZM48.7188 13.1406C48.7188 15.3802 48.3229 17.3438 47.5312 19.0312C46.7396 20.7188 45.6042 22.0208 44.125 22.9375C42.6562 23.8542 40.9688 24.3125 39.0625 24.3125C37.1771 24.3125 35.4948 23.8594 34.0156 22.9531C32.5365 22.0469 31.3906 20.7552 30.5781 19.0781C29.7656 17.3906 29.3542 15.4531 29.3438 13.2656V12.1406C29.3438 9.90104 29.7448 7.93229 30.5469 6.23438C31.3594 4.52604 32.5 3.21875 33.9688 2.3125C35.4479 1.39583 37.1354 0.9375 39.0312 0.9375C40.9271 0.9375 42.6094 1.39583 44.0781 2.3125C45.5573 3.21875 46.6979 4.52604 47.5 6.23438C48.3125 7.93229 48.7188 9.89583 48.7188 12.125V13.1406ZM43.9688 12.1094C43.9688 9.72396 43.5417 7.91146 42.6875 6.67188C41.8333 5.43229 40.6146 4.8125 39.0312 4.8125C37.4583 4.8125 36.2448 5.42708 35.3906 6.65625C34.5365 7.875 34.1042 9.66667 34.0938 12.0312V13.1406C34.0938 15.4635 34.5208 17.2656 35.375 18.5469C36.2292 19.8281 37.4583 20.4688 39.0625 20.4688C40.6354 20.4688 41.8438 19.8542 42.6875 18.625C43.5312 17.3854 43.9583 15.5833 43.9688 13.2188V12.1094ZM60.5469 15.6719H56.8125V24H52.125V1.25H60.5781C63.2656 1.25 65.3385 1.84896 66.7969 3.04688C68.2552 4.24479 68.9844 5.9375 68.9844 8.125C68.9844 9.67708 68.6458 10.974 67.9688 12.0156C67.3021 13.0469 66.2865 13.8698 64.9219 14.4844L69.8438 23.7812V24H64.8125L60.5469 15.6719ZM56.8125 11.875H60.5938C61.7708 11.875 62.6823 11.5781 63.3281 10.9844C63.974 10.3802 64.2969 9.55208 64.2969 8.5C64.2969 7.42708 63.9896 6.58333 63.375 5.96875C62.7708 5.35417 61.8385 5.04688 60.5781 5.04688H56.8125V11.875ZM79.6875 14.875L77.25 17.5V24H72.5625V1.25H77.25V11.5625L79.3125 8.73438L85.1094 1.25H90.875L82.7969 11.3594L91.1094 24H85.5312L79.6875 14.875Z" fill="#62B3FF"/>
</g>
<defs>
<filter id="filter0_i" x="-0.453125" y="0.9375" width="91.5625" height="23.375" filterUnits="userSpaceOnUse" color-interpolation-filters="sRGB">
<feFlood flood-opacity="0" result="BackgroundImageFix"/>
<feBlend mode="normal" in="SourceGraphic" in2="BackgroundImageFix" result="shape"/>
<feColorMatrix in="SourceAlpha" type="matrix" values="0 0 0 0 0 0 0 0 0 0 0 0 0 0 0 0 0 0 127 0" result="hardAlpha"/>
<feOffset dx="-1"/>
<feGaussianBlur stdDeviation="1.5"/>
<feComposite in2="hardAlpha" operator="arithmetic" k2="-1" k3="1"/>
<feColorMatrix type="matrix" values="0 0 0 0 0 0 0 0 0 0 0 0 0 0 0 0 0 0 1 0"/>
<feBlend mode="normal" in2="shape" result="effect1_innerShadow"/>
</filter>
</defs>
</svg>
