<svg width="384" height="475" viewBox="0 0 384 475" fill="none" xmlns="http://www.w3.org/2000/svg">
<g id="about">
<g id="plant">
<path id="stalk" d="M315.068 473.927L316.019 472.169C303.263 465.273 287.388 456.692 279.096 442.61C270.921 428.728 270.738 409.877 278.617 393.413C285.322 379.401 297.639 366.848 314.236 357.11C317.509 355.19 320.946 353.369 324.269 351.609C332.303 347.353 340.609 342.953 347.459 336.71C356.892 328.111 364.03 313.682 358.71 300.829C356.96 296.727 354.095 293.197 350.439 290.64C346.783 288.084 342.484 286.603 338.028 286.366L337.915 288.362C341.997 288.579 345.936 289.934 349.286 292.276C352.636 294.617 355.262 297.849 356.867 301.607C361.811 313.551 355.028 327.104 346.111 335.233C339.449 341.305 331.256 345.645 323.333 349.842C319.99 351.612 316.534 353.443 313.223 355.386C296.281 365.327 283.69 378.178 276.812 392.55C268.65 409.606 268.864 429.176 277.372 443.624C285.946 458.186 302.093 466.915 315.068 473.927Z" fill="#F1F1F1"/>
<g id="leafs">
<path id="Vector" d="M258.335 409.872C248.668 409.872 240.832 406.068 240.832 401.375C240.832 396.682 248.668 392.877 258.335 392.877C268.002 392.877 275.839 396.682 275.839 401.375C275.839 406.068 268.002 409.872 258.335 409.872Z" fill="#F1F1F1"/>
<path id="Vector_2" d="M293.343 408.872C283.676 408.872 275.839 405.068 275.839 400.375C275.839 395.682 283.676 391.877 293.343 391.877C303.01 391.877 310.846 395.682 310.846 400.375C310.846 405.068 303.01 408.872 293.343 408.872Z" fill="#F1F1F1"/>
<path id="Vector_3" d="M343.353 361.886C333.686 361.886 325.85 358.081 325.85 353.388C325.85 348.695 333.686 344.89 343.353 344.89C353.02 344.89 360.857 348.695 360.857 353.388C360.857 358.081 353.02 361.886 343.353 361.886Z" fill="#F1F1F1"/>
<path id="Vector_4" d="M311.347 352.888C301.68 352.888 293.843 349.084 293.843 344.391C293.843 339.698 301.68 335.893 311.347 335.893C321.014 335.893 328.85 339.698 328.85 344.391C328.85 349.084 321.014 352.888 311.347 352.888Z" fill="#F1F1F1"/>
<path id="Vector_5" d="M325.35 296.904C315.682 296.904 307.846 293.1 307.846 288.407C307.846 283.713 315.682 279.909 325.35 279.909C335.017 279.909 342.853 283.713 342.853 288.407C342.853 293.1 335.017 296.904 325.35 296.904Z" fill="#F1F1F1"/>
</g>
</g>
<g id="character">
<path id="Vector_6" d="M219.611 461.738L207.348 461.737L201.515 414.463L219.613 414.464L219.611 461.738Z" fill="#FFB8B8"/>
<path id="Vector_7" d="M185.905 61.1C185.905 61.1 187.757 77.3681 180.967 78.6696C174.178 79.971 187.14 102.096 187.14 102.096L218 106L210.593 79.971C210.593 79.971 205.656 78.0188 208.742 65.0043C211.828 51.9898 185.905 61.1 185.905 61.1Z" fill="#FFB8B8"/>
<path id="Vector_8" d="M222.739 457.736L198.589 457.735H198.588C194.507 457.736 190.593 459.356 187.706 462.241C184.82 465.125 183.199 469.038 183.199 473.117V473.617L222.738 473.619L222.739 457.736Z" fill="#2F2E41"/>
<path id="Vector_9" d="M173.601 461.738L161.338 461.737L155.505 414.463L173.603 414.464L173.601 461.738Z" fill="#FFB8B8"/>
<path id="Vector_10" d="M176.729 457.736L152.58 457.735H152.579C148.497 457.736 144.583 459.356 141.697 462.241C138.811 465.125 137.189 469.038 137.189 473.117V473.617L176.728 473.619L176.729 457.736Z" fill="#2F2E41"/>
<path id="Vector_11" d="M256.818 274.933C255.815 273.859 255.059 272.578 254.604 271.181C254.15 269.783 254.007 268.303 254.187 266.844C254.366 265.385 254.864 263.984 255.644 262.738C256.424 261.492 257.468 260.433 258.702 259.634L250.182 224.939L267.678 231.17L273.087 263.162C274.292 265.323 274.662 267.851 274.127 270.267C273.592 272.683 272.189 274.819 270.184 276.27C268.178 277.721 265.71 278.386 263.247 278.14C260.784 277.894 258.496 276.753 256.818 274.933V274.933Z" fill="#FFB8B8"/>
<path id="Vector_12" d="M126.649 271.934C127.653 270.86 128.409 269.579 128.864 268.182C129.318 266.784 129.461 265.304 129.281 263.845C129.102 262.386 128.604 260.985 127.824 259.739C127.044 258.493 126 257.434 124.766 256.635L133.286 221.94L115.79 228.171L110.381 260.163C109.176 262.324 108.806 264.852 109.341 267.268C109.876 269.684 111.279 271.82 113.284 273.271C115.289 274.722 117.758 275.387 120.221 275.141C122.684 274.894 124.971 273.754 126.649 271.934V271.934Z" fill="#FFB8B8"/>
<path id="Vector_13" d="M240.684 250.613L223.688 449.622L198.818 447.355L188.865 293.549L180.005 354.45L178.231 451.188L155.726 449.689L143.23 345.618L146.295 244.83L231.73 236.182L240.684 250.613Z" fill="#2F2E41"/>
<path id="Vector_14" d="M193.929 69.5202C179.685 69.5202 168.138 57.9788 168.138 43.7418C168.138 29.5048 179.685 17.9634 193.929 17.9634C208.173 17.9634 219.721 29.5048 219.721 43.7418C219.721 57.9788 208.173 69.5202 193.929 69.5202Z" fill="#FFB8B8"/>
<path id="Vector_15" d="M202.097 23.1191C202.097 23.1191 190.061 26.3413 183.828 27.6303C177.595 28.9192 178.24 25.2672 178.24 25.2672C178.24 25.2672 170.072 26.3413 170.502 25.4821C170.932 24.6228 167.063 20.1116 171.577 14.9559C176.09 9.80018 174.801 5.93346 174.801 5.93346H178.669L179.744 4.42971H185.762C185.762 4.42971 192.416 -1.40163 204.237 0.316883C216.058 2.03539 230.037 6.57791 231.327 13.667C231.502 14.6285 231.732 15.6968 231.999 16.8251C235.232 30.4648 228.364 43.2269 221.24 55.3012C219.49 58.2685 211.021 64.7392 211.238 60.2997C211.455 55.8603 218.861 45.89 213.703 45.2455C208.544 44.601 199.732 31.497 202.097 23.1191Z" fill="#2F2E41"/>
<path id="Vector_16" d="M220.768 78.326H175.346L143.23 247.853C143.23 247.853 171.229 250.246 187.233 256.244C203.236 262.242 229.84 242.542 229.84 242.542L220.768 78.326Z" fill="#003566"/>
<path id="Vector_17" d="M215.097 97.4703V78.3259L220.24 78.2946L257.815 102.173L249.661 232.998C249.661 232.998 240.011 276.644 225.375 276.191C210.738 275.738 199.452 120.145 215.097 97.4703Z" fill="#2F2E41"/>
<path id="Vector_18" d="M245.745 105.787L257.815 102.173C257.815 102.173 266.75 104.787 266.75 113.784C266.75 122.782 274.448 250.613 274.448 250.613L249.992 252.774L244.745 187.763L245.745 105.787Z" fill="#2F2E41"/>
<path id="Vector_19" d="M178.731 90.7911L181.137 78.326L174.23 77.2949L149.225 87.2921C149.225 87.2921 126.72 251.745 136.722 256.744C146.724 261.742 153.478 257.87 153.478 257.87C153.478 257.87 186.376 136.578 180.553 120.183L178.731 90.7911Z" fill="#2F2E41"/>
<path id="Vector_20" d="M166.729 89.7913L162.461 87.9348C162.461 87.9348 149.935 81.7309 142.829 94.2587C135.722 106.786 110.717 246.747 110.717 246.747L131.291 250.613L146.673 200.244L166.729 89.7913Z" fill="#2F2E41"/>
</g>
<path id="floor" d="M1.00026 474.182H382.082C382.347 474.182 382.601 474.076 382.789 473.889C382.976 473.701 383.082 473.447 383.082 473.182C383.082 472.917 382.976 472.663 382.789 472.475C382.601 472.288 382.347 472.182 382.082 472.182H1.00026C0.734986 472.182 0.480531 472.288 0.292955 472.475C0.105378 472.663 4.56637e-05 472.917 4.56637e-05 473.182C4.56637e-05 473.447 0.105378 473.701 0.292955 473.889C0.480531 474.076 0.734986 474.182 1.00026 474.182Z" fill="#CACACA"/>
</g>
</svg>
