<svg width="134" height="134" viewBox="0 0 134 134" fill="none" xmlns="http://www.w3.org/2000/svg">
<g id="circle">
<g id="character">
<path id="Vector" d="M61.8314 91.9458C51.5046 91.9458 43.1331 83.5785 43.1331 73.2568C43.1331 62.9352 51.5046 54.5679 61.8314 54.5679C72.1581 54.5679 80.5296 62.9352 80.5296 73.2568C80.5296 83.5785 72.1581 91.9458 61.8314 91.9458Z" fill="#FFB8B8"/>
<path id="Vector_2" d="M57.4263 87.8083C57.4263 87.8083 58.6132 97.2981 54.2611 98.0572C49.909 98.8164 58.2176 111.722 58.2176 111.722L77.9999 114L73.2522 98.8164C73.2522 98.8164 70.087 97.6776 72.0652 90.0859C74.0435 82.4941 57.4263 87.8083 57.4263 87.8083Z" fill="#FFB8B8"/>
<path id="Vector_3" d="M67.7524 58.3057C67.7524 58.3057 59.0265 60.6418 54.5078 61.5763C49.989 62.5107 50.4565 59.8631 50.4565 59.8631C50.4565 59.8631 44.5354 60.6418 44.847 60.0188C45.1587 59.3959 42.3539 56.1253 45.6261 52.3875C48.8983 48.6497 47.9634 45.8464 47.9634 45.8464H50.7682L51.5473 44.7562H55.9102C55.9102 44.7562 60.7338 40.5285 69.3039 41.7744C77.8739 43.0204 88.0089 46.3136 88.9438 51.4531C89.0706 52.1502 89.2376 52.9246 89.4314 53.7427C91.7749 63.6313 86.7956 72.8836 81.6312 81.6373C80.362 83.7886 74.2229 88.4797 74.3799 85.2611C74.5369 82.0426 79.9063 74.8143 76.1666 74.347C72.427 73.8798 66.0384 64.3796 67.7524 58.3057Z" fill="#2F2E41"/>
<path id="Vector_4" d="M72.4385 133.675C76.0481 133.386 79.6276 132.798 83.1399 131.918L82.943 128.191L81.3058 98.5569L81.291 98.3297H48.3534L43.1844 125.615L42.4873 129.296C43.8514 129.827 45.2309 130.327 46.6401 130.766C46.6557 130.766 46.6557 130.781 46.6705 130.781C48.6259 131.387 50.6116 131.917 52.6129 132.357C55.2737 132.93 57.9663 133.345 60.6765 133.599C62.7717 133.807 64.8761 133.908 66.9816 133.902C68.8008 133.902 70.6348 133.826 72.4385 133.675Z" fill="#F1F1F1"/>
<path id="Vector_5" d="M93.6141 128.403C94.9781 127.812 96.297 127.176 97.6004 126.509L98.1614 126.221C98.5403 126.024 98.9341 125.812 99.313 125.6C99.8289 125.312 100.329 125.024 100.814 124.736C101.284 124.464 101.769 124.176 102.239 123.888C102.269 123.873 102.284 123.858 102.314 123.858C103.951 122.812 105.558 121.737 107.104 120.57C107.362 120.373 107.62 120.176 107.878 119.979L108.15 115.616L107.756 115.374L81.3058 98.5569L80.9424 98.3296L80.9121 98.3146L77.1834 98.3296V112.207C75.0763 115.252 73.6515 121.631 72.7722 129.978C72.6508 131.175 72.545 132.402 72.4384 133.675C76.0481 133.386 79.6276 132.798 83.1399 131.918C83.5188 131.842 83.8829 131.751 84.2619 131.645C86.4708 131.067 88.6466 130.369 90.7794 129.554C91.4314 129.312 92.0679 129.054 92.7044 128.797L92.7651 128.766C93.0383 128.645 93.341 128.524 93.6141 128.403Z" fill="#2F2E41"/>
<path id="Vector_6" d="M99.313 125.6C99.8289 125.312 100.329 125.024 100.814 124.736C101.284 124.464 101.769 124.176 102.239 123.888C102.269 123.873 102.284 123.858 102.314 123.858C103.951 122.812 105.558 121.737 107.104 120.57C107.362 120.373 107.62 120.176 107.878 119.979C107.998 119.873 108.12 119.782 108.257 119.676C109.226 118.934 110.166 118.161 111.076 117.343C111.121 117.313 111.151 117.267 111.197 117.237C110.279 116.531 109.249 115.983 108.15 115.616L107.074 115.934L99.404 118.237L99.3588 121.343L99.313 125.6Z" fill="#2F2E41"/>
<path id="Vector_7" d="M34.7264 125.645C35.1815 125.888 35.636 126.13 36.0904 126.357C36.197 126.418 36.2873 126.463 36.3783 126.509C36.9852 126.812 37.5758 127.115 38.182 127.403C38.1975 127.418 38.2279 127.418 38.2279 127.433C38.2582 127.448 38.3033 127.463 38.3337 127.479C39.6977 128.13 41.0773 128.736 42.4873 129.297C43.8513 129.827 45.2309 130.327 46.6401 130.766C46.6556 130.766 46.6556 130.781 46.6704 130.781C48.6259 131.387 50.6116 131.918 52.6129 132.357C52.6353 131.112 52.4716 129.872 52.1274 128.675L52.1125 128.463L50.8085 107.374L52.5522 98.3297L47.5497 97.5873L20.0386 112.389C20.0386 112.389 23.0702 115.419 35.5146 121.873C36.6149 122.444 34.9995 124.342 34.7264 125.645Z" fill="#2F2E41"/>
</g>
<path id="circleWrapper" d="M61.0095 129.963C62.9805 130.145 64.981 130.236 66.9816 130.236C68.9222 130.236 70.8472 130.16 72.7722 129.978C72.6509 131.175 72.545 132.402 72.4384 133.675C70.6348 133.826 68.8008 133.902 66.9816 133.902C64.8761 133.908 62.7717 133.807 60.6765 133.599C57.9663 133.345 55.2737 132.931 52.6129 132.357C52.6353 131.112 52.4716 129.872 52.1273 128.675L52.1126 128.463C55.0386 129.175 58.0118 129.676 61.0095 129.963ZM3.72937 44.9407C6.9324 35.7444 12.1039 27.3571 18.8832 20.3637C25.6625 13.3703 33.8864 7.93906 42.9815 4.44875C52.0766 0.95844 61.824 -0.506946 71.5439 0.15478C81.2638 0.816505 90.7224 3.58941 99.26 8.28015C107.798 12.9709 115.209 19.4666 120.977 27.3142C126.744 35.1618 130.73 44.1725 132.656 53.7179C134.582 63.2634 134.401 73.1138 132.127 82.5824C129.853 92.0509 125.54 100.91 119.488 108.541C118.882 109.298 118.26 110.056 117.624 110.783C117.563 110.844 117.533 110.889 117.487 110.935C115.923 112.738 114.258 114.453 112.501 116.07C112.076 116.464 111.637 116.858 111.197 117.237C111.151 117.267 111.121 117.313 111.076 117.343C110.166 118.161 109.226 118.934 108.257 119.676C108.12 119.782 107.998 119.873 107.878 119.979C107.619 120.176 107.362 120.373 107.104 120.57C105.558 121.737 103.951 122.812 102.314 123.858C102.284 123.858 102.269 123.873 102.239 123.888C101.769 124.176 101.284 124.464 100.814 124.736C100.329 125.024 99.8282 125.312 99.3131 125.6C98.9341 125.812 98.5404 126.024 98.1614 126.221L97.6004 126.509C96.2971 127.175 94.9782 127.812 93.6142 128.403C93.3411 128.524 93.0383 128.645 92.7652 128.766L92.7045 128.797C92.068 129.054 91.4315 129.312 90.7795 129.554C88.6467 130.369 86.471 131.067 84.262 131.645C83.8831 131.751 83.5189 131.842 83.1399 131.917C79.6276 132.798 76.0482 133.386 72.4386 133.675C70.6349 133.826 68.8009 133.902 66.9816 133.902C64.8762 133.908 62.7717 133.807 60.6765 133.599C57.9664 133.345 55.2737 132.931 52.6129 132.357C50.6116 131.918 48.6259 131.387 46.6705 130.781C46.6557 130.781 46.6557 130.766 46.6401 130.766C45.231 130.327 43.8514 129.827 42.4873 129.297C41.0774 128.736 39.6978 128.13 38.3338 127.479C38.3035 127.463 38.2583 127.448 38.2279 127.433C38.2279 127.418 38.1976 127.418 38.1821 127.403C37.576 127.115 36.9853 126.812 36.3784 126.509C36.2874 126.463 36.1971 126.418 36.0905 126.357C35.636 126.13 35.1816 125.888 34.7265 125.645C34.6961 125.63 34.6813 125.615 34.651 125.6C33.4534 124.933 32.2707 124.236 31.1036 123.494C30.7853 123.297 30.467 123.1 30.1488 122.873C29.6788 122.585 29.2244 122.267 28.7848 121.949C28.1934 121.54 27.6028 121.115 27.0262 120.676C26.8347 120.553 26.6524 120.417 26.4808 120.267C25.0708 119.207 23.7068 118.085 22.4035 116.904C12.5182 108.1 5.46762 96.5635 2.14358 83.7538C-1.18046 70.9441 -0.628596 57.4368 3.72943 44.9407L3.72937 44.9407ZM23.5402 112.995C25.181 114.538 26.9011 115.994 28.6936 117.358C29.0874 117.661 29.4974 117.964 29.9059 118.237C30.3004 118.54 30.6942 118.828 31.1034 119.1C31.452 119.343 31.8006 119.585 32.1648 119.813C32.1951 119.843 32.2403 119.858 32.2706 119.888C32.5289 120.07 32.8013 120.237 33.0588 120.403C33.8626 120.903 34.696 121.403 35.5145 121.873C35.7114 121.979 35.8935 122.1 36.0903 122.206C36.1969 122.267 36.3028 122.327 36.4242 122.388C36.8786 122.646 37.3338 122.873 37.7882 123.115C37.8489 123.161 37.9244 123.176 37.9851 123.221C38.008 123.225 38.0292 123.236 38.0458 123.252C38.364 123.418 38.6823 123.57 39.0005 123.721C39.2736 123.858 39.5312 123.994 39.8043 124.115C40.9108 124.645 42.0476 125.145 43.1844 125.615C44.3819 126.1 45.5943 126.539 46.8221 126.948C47.1256 127.054 47.4438 127.175 47.7621 127.266C49.2024 127.721 50.6419 128.13 52.1125 128.463C55.0385 129.175 58.0118 129.676 61.0095 129.963C62.9804 130.145 64.981 130.236 66.9815 130.236C68.9221 130.236 70.8472 130.16 72.7722 129.978C76.2061 129.664 79.6079 129.066 82.9429 128.191C83.0643 128.16 83.2005 128.13 83.3219 128.1C86.0575 127.387 88.7374 126.475 91.3404 125.373C91.4765 125.312 91.6282 125.267 91.7496 125.206C91.9013 125.145 92.0376 125.1 92.1589 125.039C92.3107 124.979 92.4469 124.918 92.583 124.857C93.7199 124.358 94.8263 123.812 95.9328 123.252L96.4487 122.979C97.4338 122.464 98.4041 121.934 99.3588 121.343C99.6919 121.161 100.04 120.949 100.374 120.737C100.753 120.509 101.132 120.267 101.496 120.025C101.587 119.964 101.677 119.903 101.769 119.843C102.618 119.267 103.481 118.691 104.3 118.07C104.876 117.646 105.437 117.237 105.998 116.798C106.362 116.525 106.725 116.237 107.074 115.934C107.301 115.767 107.528 115.571 107.756 115.374C108.059 115.116 108.362 114.858 108.665 114.586C109.135 114.207 109.575 113.783 110 113.389C111.706 111.817 113.321 110.148 114.835 108.389C115.35 107.814 115.835 107.238 116.305 106.632C116.414 106.513 116.515 106.386 116.608 106.253C124.239 96.6247 128.901 84.9846 130.026 72.7527C131.151 60.5209 128.69 48.2262 122.943 37.3686C117.196 26.511 108.412 17.5598 97.6622 11.6071C86.9122 5.65444 74.6613 2.95752 62.4039 3.84544C50.1465 4.73336 38.4126 9.16773 28.6337 16.6075C18.8549 24.0474 11.4538 34.171 7.3333 45.7434C3.21283 57.3158 2.55116 69.8367 5.42901 81.7785C8.30686 93.7204 14.5998 104.567 23.5401 112.995L23.5402 112.995Z" fill="#3F3D56"/>
</g>
</svg>
