<svg width="141" height="25" viewBox="0 0 141 25" fill="none" xmlns="http://www.w3.org/2000/svg">
<g id="KONTAKT" filter="url(#filter0_i)">
<path d="M7.15625 14.875L4.71875 17.5V24H0.03125V1.25H4.71875V11.5625L6.78125 8.73438L12.5781 1.25H18.3438L10.2656 11.3594L18.5781 24H13L7.15625 14.875ZM38.5312 13.1406C38.5312 15.3802 38.1354 17.3438 37.3438 19.0312C36.5521 20.7188 35.4167 22.0208 33.9375 22.9375C32.4688 23.8542 30.7812 24.3125 28.875 24.3125C26.9896 24.3125 25.3073 23.8594 23.8281 22.9531C22.349 22.0469 21.2031 20.7552 20.3906 19.0781C19.5781 17.3906 19.1667 15.4531 19.1562 13.2656V12.1406C19.1562 9.90104 19.5573 7.93229 20.3594 6.23438C21.1719 4.52604 22.3125 3.21875 23.7812 2.3125C25.2604 1.39583 26.9479 0.9375 28.8438 0.9375C30.7396 0.9375 32.4219 1.39583 33.8906 2.3125C35.3698 3.21875 36.5104 4.52604 37.3125 6.23438C38.125 7.93229 38.5312 9.89583 38.5312 12.125V13.1406ZM33.7812 12.1094C33.7812 9.72396 33.3542 7.91146 32.5 6.67188C31.6458 5.43229 30.4271 4.8125 28.8438 4.8125C27.2708 4.8125 26.0573 5.42708 25.2031 6.65625C24.349 7.875 23.9167 9.66667 23.9062 12.0312V13.1406C23.9062 15.4635 24.3333 17.2656 25.1875 18.5469C26.0417 19.8281 27.2708 20.4688 28.875 20.4688C30.4479 20.4688 31.6562 19.8542 32.5 18.625C33.3438 17.3854 33.7708 15.5833 33.7812 13.2188V12.1094ZM60.4375 24H55.75L46.625 9.03125V24H41.9375V1.25H46.625L55.7656 16.25V1.25H60.4375V24ZM81.1875 5.04688H74.2188V24H69.5312V5.04688H62.6562V1.25H81.1875V5.04688ZM94.8438 19.3125H86.625L85.0625 24H80.0781L88.5469 1.25H92.8906L101.406 24H96.4219L94.8438 19.3125ZM87.8906 15.5156H93.5781L90.7188 7L87.8906 15.5156ZM110.656 14.875L108.219 17.5V24H103.531V1.25H108.219V11.5625L110.281 8.73438L116.078 1.25H121.844L113.766 11.3594L122.078 24H116.5L110.656 14.875ZM140.969 5.04688H134V24H129.312V5.04688H122.438V1.25H140.969V5.04688Z" fill="#FFBE0B"/>
</g>
<defs>
<filter id="filter0_i" x="0.03125" y="0.9375" width="141.938" height="25.375" filterUnits="userSpaceOnUse" color-interpolation-filters="sRGB">
<feFlood flood-opacity="0" result="BackgroundImageFix"/>
<feBlend mode="normal" in="SourceGraphic" in2="BackgroundImageFix" result="shape"/>
<feColorMatrix in="SourceAlpha" type="matrix" values="0 0 0 0 0 0 0 0 0 0 0 0 0 0 0 0 0 0 127 0" result="hardAlpha"/>
<feOffset dx="1" dy="2"/>
<feGaussianBlur stdDeviation="1.5"/>
<feComposite in2="hardAlpha" operator="arithmetic" k2="-1" k3="1"/>
<feColorMatrix type="matrix" values="0 0 0 0 0 0 0 0 0 0 0 0 0 0 0 0 0 0 1 0"/>
<feBlend mode="normal" in2="shape" result="effect1_innerShadow"/>
</filter>
</defs>
</svg>
