<svg width="102" height="25" viewBox="0 0 102 25" fill="none" xmlns="http://www.w3.org/2000/svg">
<g id="SKILLS" filter="url(#filter0_i)">
<path d="M12.8281 18.0312C12.8281 17.1458 12.5156 16.4688 11.8906 16C11.2656 15.5208 10.1406 15.0208 8.51562 14.5C6.89062 13.9688 5.60417 13.4479 4.65625 12.9375C2.07292 11.5417 0.78125 9.66146 0.78125 7.29688C0.78125 6.06771 1.125 4.97396 1.8125 4.01562C2.51042 3.04688 3.50521 2.29167 4.79688 1.75C6.09896 1.20833 7.55729 0.9375 9.17188 0.9375C10.7969 0.9375 12.2448 1.23438 13.5156 1.82812C14.7865 2.41146 15.7708 3.23958 16.4688 4.3125C17.1771 5.38542 17.5312 6.60417 17.5312 7.96875H12.8438C12.8438 6.92708 12.5156 6.11979 11.8594 5.54688C11.2031 4.96354 10.2812 4.67188 9.09375 4.67188C7.94792 4.67188 7.05729 4.91667 6.42188 5.40625C5.78646 5.88542 5.46875 6.52083 5.46875 7.3125C5.46875 8.05208 5.83854 8.67188 6.57812 9.17188C7.32812 9.67188 8.42708 10.1406 9.875 10.5781C12.5417 11.3802 14.4844 12.375 15.7031 13.5625C16.9219 14.75 17.5312 16.2292 17.5312 18C17.5312 19.9688 16.7865 21.5156 15.2969 22.6406C13.8073 23.7552 11.8021 24.3125 9.28125 24.3125C7.53125 24.3125 5.9375 23.9948 4.5 23.3594C3.0625 22.7135 1.96354 21.8333 1.20312 20.7188C0.453125 19.6042 0.078125 18.3125 0.078125 16.8438H4.78125C4.78125 19.3542 6.28125 20.6094 9.28125 20.6094C10.3958 20.6094 11.2656 20.3854 11.8906 19.9375C12.5156 19.4792 12.8281 18.8438 12.8281 18.0312ZM27.8438 14.875L25.4062 17.5V24H20.7188V1.25H25.4062V11.5625L27.4688 8.73438L33.2656 1.25H39.0312L30.9531 11.3594L39.2656 24H33.6875L27.8438 14.875ZM46.0156 24H41.3281V1.25H46.0156V24ZM55.0625 20.2344H65.0156V24H50.375V1.25H55.0625V20.2344ZM72.4062 20.2344H82.3594V24H67.7188V1.25H72.4062V20.2344ZM96.8594 18.0312C96.8594 17.1458 96.5469 16.4688 95.9219 16C95.2969 15.5208 94.1719 15.0208 92.5469 14.5C90.9219 13.9688 89.6354 13.4479 88.6875 12.9375C86.1042 11.5417 84.8125 9.66146 84.8125 7.29688C84.8125 6.06771 85.1562 4.97396 85.8438 4.01562C86.5417 3.04688 87.5365 2.29167 88.8281 1.75C90.1302 1.20833 91.5885 0.9375 93.2031 0.9375C94.8281 0.9375 96.276 1.23438 97.5469 1.82812C98.8177 2.41146 99.8021 3.23958 100.5 4.3125C101.208 5.38542 101.562 6.60417 101.562 7.96875H96.875C96.875 6.92708 96.5469 6.11979 95.8906 5.54688C95.2344 4.96354 94.3125 4.67188 93.125 4.67188C91.9792 4.67188 91.0885 4.91667 90.4531 5.40625C89.8177 5.88542 89.5 6.52083 89.5 7.3125C89.5 8.05208 89.8698 8.67188 90.6094 9.17188C91.3594 9.67188 92.4583 10.1406 93.9062 10.5781C96.5729 11.3802 98.5156 12.375 99.7344 13.5625C100.953 14.75 101.562 16.2292 101.562 18C101.562 19.9688 100.818 21.5156 99.3281 22.6406C97.8385 23.7552 95.8333 24.3125 93.3125 24.3125C91.5625 24.3125 89.9688 23.9948 88.5312 23.3594C87.0938 22.7135 85.9948 21.8333 85.2344 20.7188C84.4844 19.6042 84.1094 18.3125 84.1094 16.8438H88.8125C88.8125 19.3542 90.3125 20.6094 93.3125 20.6094C94.4271 20.6094 95.2969 20.3854 95.9219 19.9375C96.5469 19.4792 96.8594 18.8438 96.8594 18.0312Z" fill="#8338EC"/>
</g>
<defs>
<filter id="filter0_i" x="-1.92188" y="-1.0625" width="103.484" height="25.375" filterUnits="userSpaceOnUse" color-interpolation-filters="sRGB">
<feFlood flood-opacity="0" result="BackgroundImageFix"/>
<feBlend mode="normal" in="SourceGraphic" in2="BackgroundImageFix" result="shape"/>
<feColorMatrix in="SourceAlpha" type="matrix" values="0 0 0 0 0 0 0 0 0 0 0 0 0 0 0 0 0 0 127 0" result="hardAlpha"/>
<feOffset dx="-2" dy="-2"/>
<feGaussianBlur stdDeviation="2"/>
<feComposite in2="hardAlpha" operator="arithmetic" k2="-1" k3="1"/>
<feColorMatrix type="matrix" values="0 0 0 0 0 0 0 0 0 0 0 0 0 0 0 0 0 0 1 0"/>
<feBlend mode="normal" in2="shape" result="effect1_innerShadow"/>
</filter>
</defs>
</svg>
