<svg width="213" height="25" viewBox="0 0 213 25" fill="none" xmlns="http://www.w3.org/2000/svg">
<g id="TECHNOLOGIE" filter="url(#filter0_i)">
<path d="M19.1562 5.04688H12.1875V24H7.5V5.04688H0.625V1.25H19.1562V5.04688ZM35.5312 14.1406H26.5312V20.2344H37.0938V24H21.8438V1.25H37.0625V5.04688H26.5312V10.4688H35.5312V14.1406ZM57.7031 16.4219C57.526 18.8698 56.6198 20.7969 54.9844 22.2031C53.3594 23.6094 51.2135 24.3125 48.5469 24.3125C45.6302 24.3125 43.3333 23.3333 41.6562 21.375C39.9896 19.4062 39.1562 16.7083 39.1562 13.2812V11.8906C39.1562 9.70312 39.5417 7.77604 40.3125 6.10938C41.0833 4.44271 42.1823 3.16667 43.6094 2.28125C45.0469 1.38542 46.7135 0.9375 48.6094 0.9375C51.2344 0.9375 53.349 1.64062 54.9531 3.04688C56.5573 4.45312 57.4844 6.42708 57.7344 8.96875H53.0469C52.9323 7.5 52.5208 6.4375 51.8125 5.78125C51.1146 5.11458 50.0469 4.78125 48.6094 4.78125C47.0469 4.78125 45.875 5.34375 45.0938 6.46875C44.3229 7.58333 43.9271 9.31771 43.9062 11.6719V13.3906C43.9062 15.849 44.276 17.6458 45.0156 18.7812C45.7656 19.9167 46.9427 20.4844 48.5469 20.4844C49.9948 20.4844 51.0729 20.1562 51.7812 19.5C52.5 18.8333 52.9115 17.8073 53.0156 16.4219H57.7031ZM79.2969 24H74.6094V14.25H65.4688V24H60.7812V1.25H65.4688V10.4688H74.6094V1.25H79.2969V24ZM101.906 24H97.2188L88.0938 9.03125V24H83.4062V1.25H88.0938L97.2344 16.25V1.25H101.906V24ZM124.688 13.1406C124.688 15.3802 124.292 17.3438 123.5 19.0312C122.708 20.7188 121.573 22.0208 120.094 22.9375C118.625 23.8542 116.938 24.3125 115.031 24.3125C113.146 24.3125 111.464 23.8594 109.984 22.9531C108.505 22.0469 107.359 20.7552 106.547 19.0781C105.734 17.3906 105.323 15.4531 105.312 13.2656V12.1406C105.312 9.90104 105.714 7.93229 106.516 6.23438C107.328 4.52604 108.469 3.21875 109.938 2.3125C111.417 1.39583 113.104 0.9375 115 0.9375C116.896 0.9375 118.578 1.39583 120.047 2.3125C121.526 3.21875 122.667 4.52604 123.469 6.23438C124.281 7.93229 124.688 9.89583 124.688 12.125V13.1406ZM119.938 12.1094C119.938 9.72396 119.51 7.91146 118.656 6.67188C117.802 5.43229 116.583 4.8125 115 4.8125C113.427 4.8125 112.214 5.42708 111.359 6.65625C110.505 7.875 110.073 9.66667 110.062 12.0312V13.1406C110.062 15.4635 110.49 17.2656 111.344 18.5469C112.198 19.8281 113.427 20.4688 115.031 20.4688C116.604 20.4688 117.812 19.8542 118.656 18.625C119.5 17.3854 119.927 15.5833 119.938 13.2188V12.1094ZM132.781 20.2344H142.734V24H128.094V1.25H132.781V20.2344ZM163.125 13.1406C163.125 15.3802 162.729 17.3438 161.938 19.0312C161.146 20.7188 160.01 22.0208 158.531 22.9375C157.062 23.8542 155.375 24.3125 153.469 24.3125C151.583 24.3125 149.901 23.8594 148.422 22.9531C146.943 22.0469 145.797 20.7552 144.984 19.0781C144.172 17.3906 143.76 15.4531 143.75 13.2656V12.1406C143.75 9.90104 144.151 7.93229 144.953 6.23438C145.766 4.52604 146.906 3.21875 148.375 2.3125C149.854 1.39583 151.542 0.9375 153.438 0.9375C155.333 0.9375 157.016 1.39583 158.484 2.3125C159.964 3.21875 161.104 4.52604 161.906 6.23438C162.719 7.93229 163.125 9.89583 163.125 12.125V13.1406ZM158.375 12.1094C158.375 9.72396 157.948 7.91146 157.094 6.67188C156.24 5.43229 155.021 4.8125 153.438 4.8125C151.865 4.8125 150.651 5.42708 149.797 6.65625C148.943 7.875 148.51 9.66667 148.5 12.0312V13.1406C148.5 15.4635 148.927 17.2656 149.781 18.5469C150.635 19.8281 151.865 20.4688 153.469 20.4688C155.042 20.4688 156.25 19.8542 157.094 18.625C157.938 17.3854 158.365 15.5833 158.375 13.2188V12.1094ZM184.531 21.125C183.688 22.1354 182.495 22.9219 180.953 23.4844C179.411 24.0365 177.703 24.3125 175.828 24.3125C173.859 24.3125 172.13 23.8854 170.641 23.0312C169.161 22.1667 168.016 20.9167 167.203 19.2812C166.401 17.6458 165.99 15.724 165.969 13.5156V11.9688C165.969 9.69792 166.349 7.73438 167.109 6.07812C167.88 4.41146 168.984 3.14062 170.422 2.26562C171.87 1.38021 173.562 0.9375 175.5 0.9375C178.198 0.9375 180.307 1.58333 181.828 2.875C183.349 4.15625 184.25 6.02604 184.531 8.48438H179.969C179.76 7.18229 179.297 6.22917 178.578 5.625C177.87 5.02083 176.891 4.71875 175.641 4.71875C174.047 4.71875 172.833 5.31771 172 6.51562C171.167 7.71354 170.745 9.49479 170.734 11.8594V13.3125C170.734 15.6979 171.188 17.5 172.094 18.7188C173 19.9375 174.328 20.5469 176.078 20.5469C177.839 20.5469 179.094 20.1719 179.844 19.4219V15.5H175.578V12.0469H184.531V21.125ZM193.328 24H188.641V1.25H193.328V24ZM211.375 14.1406H202.375V20.2344H212.938V24H197.688V1.25H212.906V5.04688H202.375V10.4688H211.375V14.1406Z" fill="#8338EC"/>
</g>
<defs>
<filter id="filter0_i" x="-1.375" y="-1.0625" width="214.312" height="25.375" filterUnits="userSpaceOnUse" color-interpolation-filters="sRGB">
<feFlood flood-opacity="0" result="BackgroundImageFix"/>
<feBlend mode="normal" in="SourceGraphic" in2="BackgroundImageFix" result="shape"/>
<feColorMatrix in="SourceAlpha" type="matrix" values="0 0 0 0 0 0 0 0 0 0 0 0 0 0 0 0 0 0 127 0" result="hardAlpha"/>
<feOffset dx="-2" dy="-2"/>
<feGaussianBlur stdDeviation="2"/>
<feComposite in2="hardAlpha" operator="arithmetic" k2="-1" k3="1"/>
<feColorMatrix type="matrix" values="0 0 0 0 0 0 0 0 0 0 0 0 0 0 0 0 0 0 1 0"/>
<feBlend mode="normal" in2="shape" result="effect1_innerShadow"/>
</filter>
</defs>
</svg>
